<svg width="263" height="369" viewBox="0 0 263 369" fill="none" xmlns="http://www.w3.org/2000/svg">
<path d="M3.69607 2.02884C3.71199 1.20057 3.05346 0.516206 2.22518 0.500277C1.39691 0.484349 0.712548 1.14289 0.69662 1.97116L3.69607 2.02884ZM81.6466 230.119L80.8709 231.402L81.6466 230.119ZM195.856 246.52L196.597 247.825L195.856 246.52ZM180.809 180.914L180.152 182.262L180.809 180.914ZM135.215 208.149L133.757 207.796L135.215 208.149ZM169.674 314.534L170.778 313.519L169.674 314.534ZM240.547 360.429L240.785 358.948L240.547 360.429ZM262.215 359.526L246.946 351.351L247.5 368.662L262.215 359.526ZM0.642631 4.97231C0.628785 5.80063 1.28904 6.48333 2.11735 6.49718C2.94566 6.51102 3.62837 5.85077 3.64221 5.02246L0.642631 4.97231ZM3.55804 11.0489C3.56723 10.2206 2.90315 9.54158 2.07478 9.53239C1.2464 9.5232 0.567418 10.1873 0.558227 11.0157L3.55804 11.0489ZM0.509957 17.0642C0.506022 17.8926 1.1744 18.5674 2.00282 18.5713C2.83123 18.5752 3.50599 17.9069 3.50992 17.0785L0.509957 17.0642ZM3.50212 23.0883C3.50024 22.2599 2.82715 21.5898 1.99872 21.5917C1.1703 21.5936 0.500248 22.2667 0.502126 23.0951L3.50212 23.0883ZM0.538712 29.1331C0.546967 29.9615 1.2252 30.6263 2.05358 30.6181C2.88197 30.6098 3.54682 29.9316 3.53856 29.1032L0.538712 29.1331ZM3.62341 35.1218C3.60821 34.2935 2.92444 33.6344 2.09615 33.6495C1.26786 33.6647 0.608718 34.3485 0.62391 35.1768L3.62341 35.1218ZM0.761857 41.224C0.784544 42.0521 1.47426 42.705 2.30237 42.6823C3.13049 42.6596 3.78342 41.9699 3.76073 41.1418L0.761857 41.224ZM3.95426 47.1521C3.92353 46.3242 3.22751 45.678 2.39966 45.7088C1.5718 45.7395 0.925599 46.4355 0.95633 47.2634L3.95426 47.1521ZM1.21152 53.3005C1.25086 54.128 1.95357 54.767 2.78106 54.7276C3.60855 54.6883 4.24748 53.9856 4.20814 53.1581L1.21152 53.3005ZM4.52673 59.1637C4.4782 58.3367 3.76844 57.7057 2.94143 57.7542C2.11443 57.8027 1.48335 58.5125 1.53188 59.3395L4.52673 59.1637ZM1.92168 65.3771C1.98 66.2035 2.69718 66.8261 3.52355 66.7678C4.34992 66.7095 4.97255 65.9923 4.91424 65.1659L1.92168 65.3771ZM5.37464 71.1582C5.30593 70.3326 4.58096 69.719 3.75539 69.7877C2.92982 69.8565 2.31626 70.5814 2.38498 71.407L5.37464 71.1582ZM2.9266 77.4317C3.00634 78.2563 3.73944 78.8601 4.56402 78.7804C5.3886 78.7006 5.99241 77.9675 5.91266 77.1429L2.9266 77.4317ZM6.53312 83.12C6.44168 82.2966 5.70009 81.7033 4.87672 81.7947C4.05336 81.8862 3.46001 82.6278 3.55145 83.4511L6.53312 83.12ZM4.26432 89.4615C4.36815 90.2834 5.11859 90.8655 5.94048 90.7617C6.76238 90.6579 7.34449 89.9074 7.24067 89.0855L4.26432 89.4615ZM8.04036 95.0376C7.92344 94.2175 7.16381 93.6474 6.34367 93.7643C5.52354 93.8813 4.95347 94.6409 5.07039 95.461L8.04036 95.0376ZM5.97526 101.449C6.10603 102.267 6.87519 102.824 7.69323 102.693C8.51127 102.563 9.06842 101.793 8.93764 100.975L5.97526 101.449ZM9.93775 106.894C9.79235 106.079 9.01333 105.535 8.19777 105.681C7.3822 105.826 6.83892 106.605 6.98432 107.421L9.93775 106.894ZM8.10318 113.372C8.26402 114.185 9.0532 114.714 9.86586 114.553C10.6785 114.392 11.2069 113.603 11.0461 112.79L8.10318 113.372ZM12.2698 118.665C12.0926 117.856 11.293 117.343 10.4837 117.52C9.67444 117.698 9.162 118.497 9.33914 119.306L12.2698 118.665ZM10.698 125.215C10.8923 126.021 11.7027 126.516 12.508 126.322C13.3133 126.127 13.8086 125.317 13.6143 124.512L10.698 125.215ZM15.0855 130.323C14.873 129.523 14.0517 129.046 13.251 129.258C12.4503 129.47 11.9733 130.292 12.1858 131.093L15.0855 130.323ZM13.8091 136.933C14.0405 137.728 14.873 138.185 15.6684 137.954C16.4638 137.723 16.9211 136.89 16.6896 136.095L13.8091 136.933ZM18.436 141.829C18.1846 141.039 17.3409 140.603 16.5515 140.855C15.7622 141.106 15.3261 141.95 15.5776 142.739L18.436 141.829ZM17.4966 148.499C17.769 149.282 18.6241 149.695 19.4065 149.423C20.1888 149.15 20.6022 148.295 20.3298 147.513L17.4966 148.499ZM22.3771 153.138C22.0827 152.364 21.2163 151.975 20.4419 152.269C19.6676 152.563 19.2785 153.43 19.5728 154.204L22.3771 153.138ZM21.8134 159.846C22.1307 160.611 23.0082 160.975 23.7735 160.657C24.5388 160.34 24.9019 159.462 24.5847 158.697L21.8134 159.846ZM26.9619 164.188C26.6207 163.433 25.7322 163.097 24.9772 163.439C24.2223 163.78 23.8869 164.668 24.228 165.423L26.9619 164.188ZM26.8224 170.923C27.1883 171.666 28.0875 171.972 28.8307 171.606C29.5739 171.24 29.8798 170.341 29.5139 169.597L26.8224 170.923ZM32.2456 174.913C31.8541 174.183 30.9449 173.909 30.2148 174.3C29.4847 174.692 29.2102 175.601 29.6017 176.331L32.2456 174.913ZM32.5719 181.638C32.9897 182.353 33.9083 182.595 34.6237 182.177C35.339 181.759 35.5803 180.841 35.1625 180.125L32.5719 181.638ZM38.2705 185.224C37.8259 184.525 36.8988 184.319 36.1998 184.763C35.5008 185.208 35.2946 186.135 35.7392 186.834L38.2705 185.224ZM39.1078 191.906C39.5797 192.587 40.5143 192.756 41.1951 192.285C41.876 191.813 42.0453 190.878 41.5733 190.197L39.1078 191.906ZM45.0716 195.03C44.5721 194.369 43.6314 194.238 42.9705 194.738C42.3096 195.237 42.1788 196.178 42.6783 196.839L45.0716 195.03ZM46.4527 201.62C46.9798 202.259 47.9252 202.35 48.5643 201.823C49.2035 201.296 49.2943 200.351 48.7673 199.711L46.4527 201.62ZM52.6613 204.23C52.1069 203.615 51.1585 203.565 50.5429 204.119C49.9273 204.674 49.8777 205.622 50.432 206.238L52.6613 204.23ZM54.6098 210.675C55.191 211.265 56.1407 211.273 56.7311 210.692C57.3214 210.11 57.3288 209.161 56.7476 208.57L54.6098 210.675ZM61.021 212.72C60.4137 212.156 59.4646 212.192 58.9011 212.799C58.3376 213.406 58.3731 214.355 58.9803 214.919L61.021 212.72ZM63.5413 218.962C64.1736 219.497 65.1201 219.418 65.6553 218.786C66.1906 218.154 66.1119 217.207 65.4796 216.672L63.5413 218.962ZM70.1192 220.421C69.4631 219.915 68.5212 220.037 68.0155 220.693C67.5097 221.349 67.6316 222.291 68.2878 222.797L70.1192 220.421ZM73.2022 226.409C73.8807 226.884 74.8161 226.72 75.2914 226.041C75.7667 225.363 75.602 224.427 74.9235 223.952L73.2022 226.409ZM79.8723 227.255C79.173 226.81 78.246 227.017 77.8018 227.716C77.3576 228.415 77.5643 229.342 78.2635 229.787L79.8723 227.255ZM83.4812 232.937C84.2002 233.348 85.1167 233.099 85.5281 232.38C85.9395 231.661 85.6901 230.744 84.971 230.333L83.4812 232.937ZM90.1706 233.162C89.4351 232.781 88.5298 233.068 88.1486 233.804C87.7673 234.539 88.0545 235.445 88.7899 235.826L90.1706 233.162ZM94.204 238.507C94.9528 238.861 95.8471 238.542 96.2015 237.793C96.5559 237.044 96.2361 236.15 95.4873 235.795L94.204 238.507ZM100.904 238.248C100.144 237.919 99.2611 238.268 98.9318 239.029C98.6025 239.789 98.9518 240.672 99.7119 241.001L100.904 238.248ZM105.286 243.312C106.057 243.617 106.928 243.24 107.233 242.47C107.539 241.7 107.162 240.828 106.392 240.523L105.286 243.312ZM111.952 242.627C111.172 242.346 110.313 242.749 110.031 243.529C109.75 244.308 110.154 245.168 110.933 245.449L111.952 242.627ZM116.642 247.411C117.43 247.668 118.277 247.238 118.534 246.45C118.791 245.663 118.361 244.816 117.573 244.559L116.642 247.411ZM123.251 246.314C122.456 246.082 121.623 246.538 121.391 247.333C121.159 248.129 121.616 248.961 122.411 249.193L123.251 246.314ZM128.236 250.79C129.038 250.996 129.856 250.512 130.061 249.709C130.267 248.907 129.783 248.09 128.981 247.884L128.236 250.79ZM134.758 249.259C133.949 249.081 133.149 249.593 132.971 250.403C132.793 251.212 133.305 252.012 134.114 252.189L134.758 249.259ZM140.043 253.376C140.858 253.524 141.638 252.982 141.786 252.167C141.933 251.352 141.391 250.571 140.576 250.424L140.043 253.376ZM146.431 251.361C145.61 251.247 144.853 251.82 144.739 252.64C144.625 253.461 145.198 254.218 146.018 254.332L146.431 251.361ZM152.035 255.033C152.86 255.11 153.591 254.504 153.668 253.679C153.745 252.854 153.139 252.123 152.314 252.046L152.035 255.033ZM158.214 252.451C157.387 252.415 156.687 253.057 156.651 253.885C156.616 254.713 157.258 255.412 158.086 255.448L158.214 252.451ZM164.159 255.54C164.987 255.529 165.649 254.848 165.638 254.02C165.626 253.192 164.946 252.529 164.117 252.541L164.159 255.54ZM170.006 252.274C169.18 252.339 168.563 253.061 168.628 253.887C168.693 254.712 169.415 255.329 170.241 255.264L170.006 252.274ZM176.295 254.566C177.113 254.44 177.675 253.674 177.549 252.855C177.422 252.036 176.656 251.475 175.838 251.601L176.295 254.566ZM181.59 250.464C180.786 250.661 180.292 251.473 180.489 252.277C180.685 253.082 181.497 253.575 182.302 253.379L181.59 250.464ZM188.185 251.635C188.967 251.359 189.376 250.502 189.101 249.721C188.825 248.94 187.968 248.53 187.187 248.806L188.185 251.635ZM192.55 246.567C191.806 246.931 191.497 247.829 191.86 248.573C192.223 249.318 193.121 249.627 193.866 249.264L192.55 246.567ZM199.18 246.209C199.863 245.739 200.035 244.805 199.565 244.123C199.096 243.441 198.162 243.268 197.479 243.738L199.18 246.209ZM201.689 240.175C201.117 240.775 201.14 241.725 201.74 242.296C202.34 242.868 203.289 242.844 203.861 242.245L201.689 240.175ZM207.561 237.29C207.971 236.57 207.72 235.654 207 235.244C206.28 234.834 205.364 235.085 204.954 235.805L207.561 237.29ZM207.031 230.779C206.812 231.578 207.281 232.404 208.08 232.623C208.879 232.843 209.704 232.373 209.924 231.574L207.031 230.779ZM210.864 225.495C210.9 224.668 210.259 223.967 209.432 223.93C208.604 223.893 207.903 224.534 207.867 225.362L210.864 225.495ZM207.585 219.822C207.7 220.642 208.458 221.214 209.279 221.099C210.099 220.984 210.671 220.226 210.556 219.405L207.585 219.822ZM209.26 213.494C209.025 212.7 208.191 212.246 207.396 212.481C206.602 212.716 206.148 213.551 206.383 214.345L209.26 213.494ZM204.447 209.046C204.777 209.806 205.66 210.154 206.42 209.824C207.18 209.494 207.528 208.611 207.198 207.851L204.447 209.046ZM204.522 202.496C204.113 201.775 203.198 201.521 202.477 201.93C201.756 202.338 201.503 203.253 201.911 203.974L204.522 202.496ZM198.873 199.167C199.348 199.846 200.284 200.01 200.962 199.535C201.641 199.06 201.805 198.124 201.33 197.446L198.873 199.167ZM197.683 192.721C197.147 192.09 196.2 192.012 195.568 192.548C194.937 193.085 194.859 194.031 195.395 194.663L197.683 192.721ZM191.517 190.509C192.111 191.086 193.061 191.073 193.638 190.479C194.216 189.885 194.202 188.935 193.608 188.358L191.517 190.509ZM189.098 184.41C188.445 183.899 187.503 184.014 186.992 184.666C186.481 185.318 186.596 186.261 187.249 186.772L189.098 184.41ZM182.605 183.585C183.319 184.006 184.239 183.769 184.66 183.056C185.081 182.342 184.844 181.423 184.131 181.001L182.605 183.585ZM178.5 178.253C177.73 177.947 176.858 178.323 176.552 179.093C176.246 179.862 176.622 180.735 177.391 181.041L178.5 178.253ZM171.681 179.318C172.492 179.483 173.284 178.958 173.449 178.147C173.614 177.335 173.09 176.543 172.278 176.378L171.681 179.318ZM165.751 175.759C164.923 175.773 164.263 176.456 164.277 177.284C164.291 178.113 164.974 178.773 165.803 178.759L165.751 175.759ZM159.998 179.562C160.798 179.349 161.274 178.527 161.061 177.727C160.848 176.926 160.026 176.45 159.225 176.664L159.998 179.562ZM153.113 179.122C152.387 179.52 152.12 180.431 152.519 181.158C152.917 181.884 153.829 182.15 154.555 181.752L153.113 179.122ZM149.715 185.146C150.34 184.602 150.406 183.655 149.863 183.03C149.319 182.404 148.372 182.338 147.746 182.882L149.715 185.146ZM143.254 187.581C142.736 188.228 142.839 189.172 143.486 189.69C144.132 190.208 145.076 190.104 145.594 189.458L143.254 187.581ZM142.204 194.424C142.621 193.708 142.378 192.79 141.662 192.374C140.945 191.957 140.027 192.201 139.611 192.917L142.204 194.424ZM136.747 198.673C136.424 199.436 136.781 200.316 137.545 200.638C138.308 200.961 139.188 200.604 139.51 199.841L136.747 198.673ZM137.466 205.56C137.702 204.766 137.249 203.931 136.455 203.695C135.661 203.459 134.826 203.911 134.59 204.705L137.466 205.56ZM133.114 210.684C132.948 211.496 133.472 212.288 134.284 212.453C135.095 212.619 135.888 212.095 136.053 211.284L133.114 210.684ZM135.114 216.905C135.222 216.083 134.643 215.33 133.822 215.222C133 215.114 132.247 215.693 132.139 216.514L135.114 216.905ZM131.571 222.394C131.52 223.221 132.148 223.933 132.975 223.985C133.801 224.037 134.514 223.409 134.566 222.582L131.571 222.394ZM134.394 228.288C134.392 227.459 133.719 226.789 132.891 226.79C132.062 226.792 131.392 227.465 131.394 228.293L134.394 228.288ZM131.586 234.187C131.638 235.014 132.35 235.642 133.177 235.59C134.004 235.538 134.632 234.826 134.58 233.999L131.586 234.187ZM135.105 239.694C135.005 238.872 134.258 238.286 133.435 238.386C132.613 238.485 132.027 239.233 132.127 240.055L135.105 239.694ZM132.995 245.877C133.139 246.693 133.917 247.238 134.733 247.094C135.549 246.949 136.093 246.171 135.949 245.355L132.995 245.877ZM137.092 250.97C136.906 250.163 136.101 249.659 135.294 249.845C134.486 250.031 133.983 250.836 134.169 251.643L137.092 250.97ZM135.628 257.338C135.853 258.135 136.682 258.599 137.48 258.374C138.277 258.149 138.741 257.32 138.516 256.523L135.628 257.338ZM140.202 262.006C139.941 261.22 139.091 260.795 138.305 261.057C137.519 261.319 137.094 262.168 137.356 262.954L140.202 262.006ZM139.335 268.483C139.631 269.257 140.498 269.644 141.272 269.348C142.046 269.052 142.433 268.184 142.136 267.411L139.335 268.483ZM144.303 272.729C143.975 271.968 143.092 271.618 142.331 271.947C141.571 272.276 141.221 273.159 141.55 273.919L144.303 272.729ZM143.988 279.256C144.348 280.003 145.244 280.316 145.99 279.957C146.737 279.597 147.05 278.701 146.691 277.954L143.988 279.256ZM149.288 283.081C148.899 282.35 147.991 282.072 147.259 282.461C146.528 282.85 146.25 283.758 146.639 284.49L149.288 283.081ZM149.493 289.613C149.91 290.328 150.829 290.57 151.544 290.153C152.26 289.736 152.502 288.818 152.085 288.102L149.493 289.613ZM155.075 293.013C154.631 292.314 153.704 292.107 153.005 292.551C152.306 292.996 152.099 293.923 152.544 294.622L155.075 293.013ZM155.783 299.51C156.254 300.191 157.189 300.362 157.87 299.891C158.552 299.421 158.723 298.486 158.252 297.805L155.783 299.51ZM161.609 302.47C161.112 301.807 160.172 301.672 159.509 302.169C158.846 302.666 158.711 303.606 159.208 304.269L161.609 302.47ZM162.818 308.895C163.341 309.537 164.285 309.635 164.928 309.113C165.571 308.59 165.669 307.645 165.146 307.003L162.818 308.895ZM168.858 311.387C168.31 310.766 167.362 310.706 166.741 311.254C166.119 311.802 166.06 312.75 166.608 313.371L168.858 311.387ZM170.674 317.801C171.244 318.402 172.193 318.427 172.794 317.857C173.395 317.286 173.42 316.337 172.85 315.736L170.674 317.801ZM177.104 320.085C176.516 319.501 175.567 319.505 174.983 320.093C174.4 320.681 174.403 321.631 174.991 322.214L177.104 320.085ZM179.436 326.5C180.041 327.066 180.99 327.035 181.556 326.43C182.123 325.826 182.092 324.876 181.487 324.31L179.436 326.5ZM185.986 328.404C185.365 327.855 184.417 327.914 183.869 328.534C183.32 329.155 183.379 330.103 183.999 330.652L185.986 328.404ZM188.685 334.671C189.322 335.2 190.268 335.114 190.798 334.477C191.328 333.84 191.241 332.894 190.604 332.364L188.685 334.671ZM195.34 336.18C194.686 335.671 193.744 335.787 193.234 336.441C192.725 337.094 192.842 338.036 193.495 338.546L195.34 336.18ZM198.431 342.263C199.102 342.75 200.04 342.602 200.526 341.931C201.013 341.261 200.865 340.323 200.194 339.836L198.431 342.263ZM205.172 343.313C204.484 342.852 203.552 343.036 203.091 343.724C202.629 344.412 202.813 345.344 203.501 345.805L205.172 343.313ZM208.713 349.147C209.419 349.58 210.343 349.357 210.775 348.65C211.207 347.944 210.985 347.02 210.278 346.588L208.713 349.147ZM215.517 349.628C214.791 349.229 213.879 349.496 213.481 350.222C213.083 350.949 213.349 351.86 214.076 352.258L215.517 349.628ZM219.599 355.096C220.346 355.454 221.242 355.138 221.6 354.391C221.957 353.643 221.642 352.748 220.894 352.39L219.599 355.096ZM226.41 354.821C225.642 354.512 224.768 354.885 224.459 355.654C224.15 356.422 224.523 357.296 225.292 357.605L226.41 354.821ZM231.17 359.715C231.96 359.964 232.802 359.526 233.051 358.735C233.3 357.945 232.861 357.103 232.071 356.854L231.17 359.715ZM237.856 358.396C237.046 358.221 236.248 358.735 236.073 359.545C235.898 360.355 236.413 361.153 237.223 361.328L237.856 358.396ZM243.158 362.219C243.985 362.269 244.695 361.639 244.745 360.812C244.795 359.985 244.165 359.274 243.338 359.225L243.158 362.219ZM248.573 359.154C247.746 359.213 247.124 359.93 247.183 360.757C247.242 361.583 247.959 362.205 248.786 362.146L248.573 359.154ZM254.253 361.608C255.077 361.517 255.67 360.775 255.579 359.952C255.488 359.128 254.746 358.535 253.923 358.626L254.253 361.608ZM259.409 358.116C258.582 358.166 257.952 358.876 258.002 359.703C258.052 360.53 258.763 361.16 259.59 361.111L259.409 358.116ZM0.69662 1.97116C0.677459 2.96755 0.65942 3.968 0.642631 4.97231L3.64221 5.02246C3.65896 4.02076 3.67695 3.02283 3.69607 2.02884L0.69662 1.97116ZM0.558227 11.0157C0.536006 13.0186 0.519594 15.0352 0.509957 17.0642L3.50992 17.0785C3.51953 15.0562 3.53589 13.0459 3.55804 11.0489L0.558227 11.0157ZM0.502126 23.0951C0.506663 25.0975 0.518559 27.1106 0.538712 29.1331L3.53856 29.1032C3.51849 27.0888 3.50664 25.0834 3.50212 23.0883L0.502126 23.0951ZM0.62391 35.1768C0.66074 37.1849 0.706437 39.201 0.761857 41.224L3.76073 41.1418C3.70557 39.1283 3.66008 37.1212 3.62341 35.1218L0.62391 35.1768ZM0.95633 47.2634C1.03084 49.2705 1.11563 51.2833 1.21152 53.3005L4.20814 53.1581C4.11275 51.1516 4.0284 49.1492 3.95426 47.1521L0.95633 47.2634ZM1.53188 59.3395C1.6498 61.349 1.77946 63.3619 1.92168 65.3771L4.91424 65.1659C4.77288 63.1629 4.64398 61.1618 4.52673 59.1637L1.53188 59.3395ZM2.38498 71.407C2.55205 73.4143 2.73232 75.4229 2.9266 77.4317L5.91266 77.1429C5.71972 75.1478 5.54063 73.1525 5.37464 71.1582L2.38498 71.407ZM3.55145 83.4511C3.77407 85.4557 4.01143 87.4595 4.26432 89.4615L7.24067 89.0855C6.98972 87.0989 6.75413 85.11 6.53312 83.12L3.55145 83.4511ZM5.07039 95.461C5.35539 97.4602 5.65675 99.4565 5.97526 101.449L8.93764 100.975C8.62188 99.0001 8.32304 97.0205 8.04036 95.0376L5.07039 95.461ZM6.98432 107.421C7.33896 109.41 7.71164 111.394 8.10318 113.372L11.0461 112.79C10.6583 110.831 10.2891 108.865 9.93775 106.894L6.98432 107.421ZM9.33914 119.306C9.7719 121.284 10.2246 123.253 10.698 125.215L13.6143 124.512C13.146 122.571 12.6981 120.622 12.2698 118.665L9.33914 119.306ZM12.1858 131.093C12.7048 133.049 13.2456 134.996 13.8091 136.933L16.6896 136.095C16.133 134.181 15.5985 132.257 15.0855 130.323L12.1858 131.093ZM15.5776 142.739C16.193 144.671 16.8324 146.592 17.4966 148.499L20.3298 147.513C19.6746 145.631 19.0436 143.736 18.436 141.829L15.5776 142.739ZM19.5728 154.204C20.2933 156.099 21.0399 157.98 21.8134 159.846L24.5847 158.697C23.8228 156.86 23.0872 155.006 22.3771 153.138L19.5728 154.204ZM24.228 165.423C25.0641 167.273 25.9286 169.107 26.8224 170.923L29.5139 169.597C28.6351 167.812 27.7847 166.009 26.9619 164.188L24.228 165.423ZM29.6017 176.331C30.5609 178.12 31.5506 179.889 32.5719 181.638L35.1625 180.125C34.16 178.408 33.188 176.671 32.2456 174.913L29.6017 176.331ZM35.7392 186.834C36.8291 188.547 37.9516 190.238 39.1078 191.906L41.5733 190.197C40.4401 188.562 39.3395 186.904 38.2705 185.224L35.7392 186.834ZM42.6783 196.839C43.9016 198.458 45.1595 200.052 46.4527 201.62L48.7673 199.711C47.5014 198.176 46.2698 196.615 45.0716 195.03L42.6783 196.839ZM50.432 206.238C51.7885 207.744 53.1808 209.224 54.6098 210.675L56.7476 208.57C55.3501 207.151 53.9883 205.704 52.6613 204.23L50.432 206.238ZM58.9803 214.919C60.4637 216.295 61.9838 217.643 63.5413 218.962L65.4796 216.672C63.9571 215.383 62.4712 214.065 61.021 212.72L58.9803 214.919ZM68.2878 222.797C69.8889 224.031 71.5268 225.235 73.2022 226.409L74.9235 223.952C73.2854 222.804 71.6843 221.627 70.1192 220.421L68.2878 222.797ZM78.2635 229.787C79.1234 230.333 79.9924 230.872 80.8709 231.402L82.4223 228.835C81.5631 228.316 80.7131 227.789 79.8723 227.255L78.2635 229.787ZM80.8709 231.402C81.7176 231.914 82.5881 232.426 83.4812 232.937L84.971 230.333C84.0979 229.833 83.2479 229.334 82.4223 228.835L80.8709 231.402ZM88.7899 235.826C90.5327 236.729 92.34 237.625 94.204 238.507L95.4873 235.795C93.6551 234.928 91.8803 234.049 90.1706 233.162L88.7899 235.826ZM99.7119 241.001C101.53 241.789 103.39 242.56 105.286 243.312L106.392 240.523C104.524 239.783 102.693 239.023 100.904 238.248L99.7119 241.001ZM110.933 245.449C112.81 246.126 114.715 246.782 116.642 247.411L117.573 244.559C115.675 243.939 113.8 243.294 111.952 242.627L110.933 245.449ZM122.411 249.193C124.337 249.755 126.281 250.289 128.236 250.79L128.981 247.884C127.058 247.391 125.147 246.867 123.251 246.314L122.411 249.193ZM134.114 252.189C136.085 252.622 138.063 253.019 140.043 253.376L140.576 250.424C138.634 250.073 136.693 249.684 134.758 249.259L134.114 252.189ZM146.018 254.332C148.028 254.611 150.036 254.846 152.035 255.033L152.314 252.046C150.361 251.864 148.398 251.634 146.431 251.361L146.018 254.332ZM158.086 255.448C160.126 255.536 162.152 255.568 164.159 255.54L164.117 252.541C162.17 252.567 160.201 252.536 158.214 252.451L158.086 255.448ZM170.241 255.264C172.288 255.103 174.308 254.872 176.295 254.566L175.838 251.601C173.929 251.895 171.983 252.118 170.006 252.274L170.241 255.264ZM182.302 253.379C184.31 252.889 186.274 252.309 188.185 251.635L187.187 248.806C185.375 249.445 183.508 249.997 181.59 250.464L182.302 253.379ZM193.866 249.264C194.793 248.811 195.704 248.332 196.597 247.825L195.116 245.216C194.278 245.692 193.423 246.142 192.55 246.567L193.866 249.264ZM196.597 247.825C197.505 247.309 198.365 246.77 199.18 246.209L197.479 243.738C196.738 244.249 195.951 244.742 195.116 245.216L196.597 247.825ZM203.861 242.245C205.341 240.691 206.568 239.033 207.561 237.29L204.954 235.805C204.084 237.333 203.003 238.796 201.689 240.175L203.861 242.245ZM209.924 231.574C210.468 229.594 210.771 227.558 210.864 225.495L207.867 225.362C207.784 227.219 207.511 229.031 207.031 230.779L209.924 231.574ZM210.556 219.405C210.28 217.434 209.84 215.457 209.26 213.494L206.383 214.345C206.925 216.178 207.331 218.009 207.585 219.822L210.556 219.405ZM207.198 207.851C206.409 206.034 205.511 204.243 204.522 202.496L201.911 203.974C202.851 205.634 203.701 207.331 204.447 209.046L207.198 207.851ZM201.33 197.446C200.183 195.809 198.962 194.229 197.683 192.721L195.395 194.663C196.615 196.1 197.78 197.607 198.873 199.167L201.33 197.446ZM193.608 188.358C192.147 186.937 190.637 185.615 189.098 184.41L187.249 186.772C188.699 187.908 190.129 189.159 191.517 190.509L193.608 188.358ZM184.131 181.001C183.246 180.479 182.356 179.999 181.466 179.565L180.152 182.262C180.967 182.659 181.785 183.1 182.605 183.585L184.131 181.001ZM181.466 179.565C180.469 179.08 179.48 178.643 178.5 178.253L177.391 181.041C178.3 181.402 179.22 181.808 180.152 182.262L181.466 179.565ZM172.278 176.378C170.041 175.923 167.863 175.723 165.751 175.759L165.803 178.759C167.688 178.726 169.649 178.905 171.681 179.318L172.278 176.378ZM159.225 176.664C157.081 177.235 155.041 178.065 153.113 179.122L154.555 181.752C156.28 180.807 158.096 180.069 159.998 179.562L159.225 176.664ZM147.746 182.882C146.136 184.281 144.636 185.857 143.254 187.581L145.594 189.458C146.873 187.863 148.249 186.42 149.715 185.146L147.746 182.882ZM139.611 192.917C138.554 194.736 137.597 196.661 136.747 198.673L139.51 199.841C140.314 197.939 141.214 196.128 142.204 194.424L139.611 192.917ZM134.59 204.705C134.288 205.721 134.01 206.752 133.757 207.796L136.673 208.502C136.914 207.507 137.179 206.525 137.466 205.56L134.59 204.705ZM133.757 207.796C133.525 208.756 133.311 209.719 133.114 210.684L136.053 211.284C136.243 210.354 136.449 209.426 136.673 208.502L133.757 207.796ZM132.139 216.514C131.883 218.468 131.695 220.428 131.571 222.394L134.566 222.582C134.685 220.682 134.867 218.789 135.114 216.905L132.139 216.514ZM131.394 228.293C131.397 230.256 131.462 232.222 131.586 234.187L134.58 233.999C134.46 232.093 134.397 230.188 134.394 228.288L131.394 228.293ZM132.127 240.055C132.362 241.999 132.652 243.941 132.995 245.877L135.949 245.355C135.616 243.471 135.334 241.583 135.105 239.694L132.127 240.055ZM134.169 251.643C134.608 253.55 135.095 255.448 135.628 257.338L138.516 256.523C137.995 254.679 137.52 252.828 137.092 250.97L134.169 251.643ZM137.356 262.954C137.974 264.81 138.634 266.653 139.335 268.483L142.136 267.411C141.452 265.621 140.806 263.819 140.202 262.006L137.356 262.954ZM141.55 273.919C142.326 275.715 143.14 277.495 143.988 279.256L146.691 277.954C145.86 276.229 145.063 274.487 144.303 272.729L141.55 273.919ZM146.639 284.49C147.559 286.219 148.511 287.927 149.493 289.613L152.085 288.102C151.122 286.45 150.189 284.776 149.288 283.081L146.639 284.49ZM152.544 294.622C153.596 296.278 154.677 297.908 155.783 299.51L158.252 297.805C157.167 296.235 156.107 294.636 155.075 293.013L152.544 294.622ZM159.208 304.269C160.389 305.844 161.593 307.387 162.818 308.895L165.146 307.003C163.946 305.525 162.766 304.013 161.609 302.47L159.208 304.269ZM166.608 313.371C167.257 314.107 167.911 314.834 168.57 315.55L170.778 313.519C170.134 312.818 169.493 312.107 168.858 311.387L166.608 313.371ZM168.57 315.55C169.253 316.293 169.955 317.044 170.674 317.801L172.85 315.736C172.141 314.99 171.451 314.25 170.778 313.519L168.57 315.55ZM174.991 322.214C176.422 323.634 177.906 325.066 179.436 326.5L181.487 324.31C179.978 322.896 178.515 321.485 177.104 320.085L174.991 322.214ZM183.999 330.652C185.525 332 187.089 333.343 188.685 334.671L190.604 332.364C189.031 331.056 187.49 329.733 185.986 328.404L183.999 330.652ZM193.495 338.546C195.114 339.809 196.761 341.05 198.431 342.263L200.194 339.836C198.553 338.644 196.933 337.423 195.34 336.18L193.495 338.546ZM203.501 345.805C205.22 346.958 206.959 348.075 208.713 349.147L210.278 346.588C208.562 345.539 206.858 344.445 205.172 343.313L203.501 345.805ZM214.076 352.258C215.906 353.262 217.749 354.211 219.599 355.096L220.894 352.39C219.097 351.53 217.303 350.606 215.517 349.628L214.076 352.258ZM225.292 357.605C227.249 358.391 229.211 359.098 231.17 359.715L232.071 356.854C230.191 356.262 228.302 355.581 226.41 354.821L225.292 357.605ZM237.223 361.328C238.254 361.551 239.283 361.745 240.309 361.91L240.785 358.948C239.813 358.792 238.837 358.607 237.856 358.396L237.223 361.328ZM240.309 361.91C241.262 362.063 242.212 362.162 243.158 362.219L243.338 359.225C242.481 359.173 241.63 359.084 240.785 358.948L240.309 361.91ZM248.786 362.146C250.623 362.015 252.46 361.807 254.253 361.608L253.923 358.626C252.111 358.827 250.339 359.028 248.573 359.154L248.786 362.146Z" fill="#0071B4"/>
</svg>
