<svg width="185" height="79" viewBox="0 0 185 79" fill="none" xmlns="http://www.w3.org/2000/svg">
<circle cx="5.09101" cy="8.34851" r="4.844" fill="#0071B4"/>
<circle cx="30.003" cy="8.34851" r="4.844" fill="#0071B4"/>
<circle cx="54.915" cy="8.34851" r="4.844" fill="#0071B4"/>
<circle cx="79.827" cy="8.34851" r="4.844" fill="#0071B4"/>
<circle cx="104.739" cy="8.34851" r="4.844" fill="#0071B4"/>
<circle cx="129.651" cy="8.34851" r="4.844" fill="#0071B4"/>
<circle cx="154.563" cy="8.34851" r="4.844" fill="#0071B4"/>
<circle cx="179.475" cy="8.34851" r="4.844" fill="#0071B4"/>
<circle cx="5.09101" cy="29.0365" r="4.844" fill="#0071B4"/>
<circle cx="30.003" cy="29.0365" r="4.844" fill="#0071B4"/>
<circle cx="54.915" cy="29.0365" r="4.844" fill="#0071B4"/>
<circle cx="79.827" cy="29.0365" r="4.844" fill="#0071B4"/>
<circle cx="104.739" cy="29.0365" r="4.844" fill="#0071B4"/>
<circle cx="129.651" cy="29.0365" r="4.844" fill="#0071B4"/>
<circle cx="154.563" cy="29.0365" r="4.844" fill="#0071B4"/>
<circle cx="179.475" cy="29.0365" r="4.844" fill="#0071B4"/>
<circle cx="5.09101" cy="49.7245" r="4.844" fill="#0071B4"/>
<circle cx="30.003" cy="49.7245" r="4.844" fill="#0071B4"/>
<circle cx="54.915" cy="49.7245" r="4.844" fill="#0071B4"/>
<circle cx="79.827" cy="49.7245" r="4.844" fill="#0071B4"/>
<circle cx="104.739" cy="49.7245" r="4.844" fill="#0071B4"/>
<circle cx="129.651" cy="49.7245" r="4.844" fill="#0071B4"/>
<circle cx="154.563" cy="49.7245" r="4.844" fill="#0071B4"/>
<circle cx="179.475" cy="49.7245" r="4.844" fill="#0071B4"/>
<circle cx="5.09101" cy="70.4125" r="4.844" fill="#0071B4"/>
<circle cx="30.003" cy="70.4125" r="4.844" fill="#0071B4"/>
<circle cx="54.915" cy="70.4125" r="4.844" fill="#0071B4"/>
<circle cx="79.827" cy="70.4125" r="4.844" fill="#0071B4"/>
<circle cx="104.739" cy="70.4125" r="4.844" fill="#0071B4"/>
<circle cx="129.651" cy="70.4125" r="4.844" fill="#0071B4"/>
<circle cx="154.563" cy="70.4125" r="4.844" fill="#0071B4"/>
<circle cx="179.475" cy="70.4125" r="4.844" fill="#0071B4"/>
</svg>
