<svg width="1440" height="722" viewBox="0 0 1440 722" fill="none" xmlns="http://www.w3.org/2000/svg">
<path d="M840.533 125.913C848.172 126.014 855.277 124.903 860.782 120.664C864.132 118.083 868.353 116.967 873.016 116.504C878.94 115.913 880.411 116.766 880.368 120.982C880.346 123.137 879.79 125.289 879.414 127.878C887.161 127.741 894.082 127.142 899.835 122.795C906.463 117.787 913.862 113.324 924.241 112.946C926.762 112.853 928.476 112.157 930.011 110.709C935.818 105.244 943.41 101.264 951.645 97.9014C953.363 97.1995 955.468 96.9861 957.53 96.5157C959.933 100.043 959.388 103.11 957.078 105.925C954.747 108.766 951.903 111.388 949.267 114.1C948.209 115.188 947.111 116.257 945.68 117.684C947.757 117.859 949.048 117.977 950.346 118.072C957.838 118.62 965.208 119.497 971.725 122.45C977.632 125.127 982.707 124.631 987.559 120.923C993.05 116.73 1000.27 114.861 1008.07 114.095C1011.71 113.738 1015.24 113.452 1017.96 116.057C1019.87 117.879 1022.9 117.047 1025.52 116.81C1029.09 116.491 1032.65 116.154 1036.19 115.828C1036.99 116.815 1037.73 117.358 1037.87 117.972C1038.34 119.998 1040.27 120.646 1042.71 120.916C1043.48 121 1044.24 121.07 1045 121.142C1052.33 121.833 1053.91 122.88 1054.27 128.137C1054.51 131.664 1054.17 135.212 1054.08 139.189C1055.91 139.629 1058.39 140.261 1060.9 140.829C1070.42 142.992 1079.96 145.107 1089.47 147.29C1096.72 148.956 1100.36 152.496 1100.7 157.956C1101.01 163.08 1098.8 167.726 1095.55 172.184C1091.05 178.377 1086.54 184.57 1082 190.809C1086.6 193.213 1089.72 192.792 1092.87 189.29C1094.62 187.344 1096.37 185.331 1098.62 183.701C1102.92 180.58 1108.1 181.745 1109.63 186.035C1110.06 187.231 1110.16 188.485 1110.49 189.701C1111.37 192.933 1112.25 196.164 1113.21 199.386C1114 202.016 1115.44 204.327 1119.03 205.702C1121.67 206.715 1122.53 208.433 1122.32 210.579C1121.55 218.626 1119.94 226.421 1112.8 233.146C1109.93 235.858 1107.79 238.997 1105.63 242.059C1104.93 243.065 1104.94 244.453 1105.12 245.628C1105.53 248.353 1106.26 251.055 1106.98 254.351C1108.73 254.626 1110.87 255.212 1113.03 255.258C1121.16 255.433 1128.55 253.549 1135.37 250.541C1136.94 249.846 1138.39 248.769 1139.34 247.633C1141.06 245.581 1143.34 244.962 1146.56 245.054C1149.19 245.129 1151.91 244.916 1154.46 244.448C1158.89 243.638 1161.61 241.175 1163.41 238.409C1166.9 233.069 1172.68 229.892 1180.22 227.863C1192.57 224.544 1201.26 217.968 1209.05 210.656C1210.32 209.471 1211.85 208.425 1213.31 207.355C1216.37 205.119 1216.69 203.517 1214.55 200.715C1213.91 199.869 1213.15 199.064 1212.58 198.195C1208.79 192.367 1214.43 186.526 1223.34 186.848C1226.37 186.958 1229.49 186.724 1232.49 186.331C1244.75 184.719 1256.99 183.007 1269.22 181.279C1271.46 180.963 1273.76 180.593 1275.81 179.904C1280.99 178.166 1282.19 176.505 1280.6 172.651C1279.13 169.06 1278.83 165.648 1281.53 162.386C1280.05 160.779 1278.58 159.347 1277.35 157.813C1275.72 155.782 1276.09 153.712 1278.34 152.11C1280.35 150.684 1282.76 149.539 1285.09 148.367C1286.01 147.904 1287.17 147.668 1288.25 147.393C1294.83 145.709 1299.13 142.521 1301.46 137.755C1302.59 135.444 1304.19 133.166 1306.15 131.163C1310.04 127.189 1316 125.16 1322.42 124.9C1334.89 124.397 1346.38 121.075 1358.37 119.229C1362.5 118.592 1366.64 117.993 1370.7 117.178C1378.82 115.553 1386.92 113.871 1394.92 112.005C1396.22 111.704 1397.27 110.416 1397.99 109.419C1398.95 108.103 1399.16 106.483 1400.24 105.244C1401.84 103.418 1404.09 102.403 1407.53 102.83C1412.38 103.431 1414.63 102.184 1415.89 98.922C1416.76 96.6751 1417.79 94.459 1418.72 92.2224C1420.27 88.4535 1420.9 84.6255 1419.17 80.8232C1417.18 76.4347 1417.28 72.1671 1419.83 67.9252C1421.48 65.177 1421.67 62.3182 1420.91 59.4131C1419.65 54.5979 1419.81 49.8624 1421.68 45.1012C1423.08 41.5277 1423.93 37.8437 1425.04 34.2085C1425.28 33.4038 1425.48 32.5863 1425.85 31.8125C1426.77 29.9255 1428.96 28.64 1431.41 28.7146C1433.37 28.7763 1435.59 29.8869 1437.07 30.9718C1438.48 32.0053 1439.13 33.5889 1440.03 34.9566C1442.33 38.4247 1444.58 39.4299 1449.89 39.1497C1451.99 39.0391 1454.08 38.7898 1456.16 38.5224C1462.06 37.7563 1467.21 38.8129 1471.53 41.7874C1478.11 46.3172 1483.26 51.2353 1481.34 58.4311C1480.47 61.6652 1480.42 65.0073 1479.84 68.2851C1479.58 69.8045 1480.04 71.0488 1481.74 71.9383C1485.28 73.7996 1488.78 75.7252 1492.51 77.3834C1498.37 79.9928 1504.6 82.2012 1510.31 84.9649C1514.61 87.0447 1517.95 89.8906 1519.75 93.5798C1521.28 96.7214 1521.56 99.7318 1519.74 102.819C1519.37 103.439 1518.89 104.159 1519.02 104.771C1519.91 108.91 1516.09 110.804 1511.89 112.344C1509.19 113.339 1506.13 113.83 1503.28 114.632C1499.89 115.584 1496.25 116.293 1493.27 117.705C1488.3 120.057 1483.54 122.746 1483.16 127.641C1483.09 128.579 1482.53 129.513 1482.11 130.423C1480.46 133.922 1477.94 134.906 1472.85 134.071C1467.21 133.148 1466.59 133.176 1465.67 136.904C1464.44 141.876 1459.83 144.897 1454.63 147.501C1450.74 149.444 1448.4 151.866 1447.21 155.057C1443.91 163.931 1444.94 172.849 1447.15 181.683C1447.8 184.254 1450.3 186.637 1452.25 188.979C1455.48 192.853 1460.25 196.072 1461.79 200.663C1462.05 201.466 1462.47 202.247 1462.67 203.054C1463.74 207.451 1462.72 208.397 1456.56 208.818C1454.08 208.988 1451.6 209.186 1449.12 209.381C1448.94 209.394 1448.76 209.474 1448.21 209.62C1446.91 210.464 1447.44 212.821 1444.19 212.878C1443.51 212.89 1442.68 213.988 1442.23 214.688C1440.61 217.166 1438.83 219.621 1437.66 222.212C1435.6 226.747 1430.87 229.172 1425.11 230.647C1420.37 231.858 1416.78 233.743 1413.95 236.761C1410.75 240.17 1406.18 242.432 1400.36 243.142C1394.77 243.823 1389.58 245.242 1385.12 247.761C1379 251.217 1375.68 255.412 1377.19 261.382C1378.9 268.112 1377.83 274.871 1374.67 281.309C1372.65 285.419 1367.91 288.255 1363.56 291.165C1362.59 291.818 1361.43 292.335 1360.33 292.89C1358.06 294.042 1357.66 295.489 1358.98 297.199C1364.73 304.616 1365.13 312.714 1364.6 320.874C1364.47 322.715 1363.57 324.699 1362.27 326.298C1359.55 329.63 1358.21 333.075 1358.47 336.929C1358.58 338.561 1358.21 340.222 1357.9 341.855C1357.58 343.521 1356.21 344.235 1353.83 343.834C1348.5 342.937 1339.09 336.978 1339.42 331.69C1339.73 326.661 1338.36 321.578 1337.7 316.522C1337.46 314.64 1336.18 313.228 1334.07 312.043C1331.8 310.778 1329.96 309.115 1327.65 307.899C1326.02 307.04 1324 306.454 1322.03 306.079C1319.58 305.611 1317.73 306.49 1317.51 308.308C1317.12 311.408 1314.99 313.167 1311.04 314.509C1309.19 315.136 1307.66 317.241 1307.3 318.83C1306.92 320.499 1309.15 321.668 1311.44 322.347C1321.27 325.27 1325.58 331.345 1328.2 338.109C1329.18 340.659 1330.4 342.114 1334.12 342.878C1340.13 344.117 1343.24 347.521 1345.16 351.66C1345.97 353.421 1347.22 355.182 1348.83 356.629C1352.52 359.953 1356.89 362.913 1360.33 366.355C1362.63 368.653 1363.87 371.504 1365.46 374.145C1366.29 375.523 1365.36 376.674 1363.69 377.263C1360.96 378.219 1358.17 379.217 1355.24 379.713C1350.33 380.546 1345.95 381.893 1342.24 384.253C1342.34 384.549 1342.43 384.842 1342.53 385.138C1344.87 384.906 1347.21 384.549 1349.56 384.464C1354.84 384.279 1360.21 383.41 1365 386.158C1369.22 388.575 1369.45 389.526 1366.56 392.932C1364.08 395.848 1362.37 399.11 1359.79 401.974C1354.54 407.82 1354.39 407.751 1345.36 408.139C1344.58 411.808 1345.62 412.787 1350.18 412.62C1351.13 412.584 1352.07 412.376 1353.02 412.268C1356.96 411.826 1362.73 413.875 1364.64 416.307C1365.89 417.895 1365.21 419.345 1363.84 420.52C1360.42 423.464 1357.2 426.526 1351.87 428.061C1349.1 428.857 1346.72 430.418 1344.32 431.781C1340.57 433.917 1336.96 436.179 1333.29 438.388C1329.85 440.457 1326.04 441.755 1321.53 442.465C1318.56 442.933 1315.55 444.383 1313.33 445.959C1309.51 448.679 1305.76 451.319 1301.25 453.535C1298.05 455.111 1295.84 457.751 1293.27 459.972C1290.35 462.507 1287.81 465.299 1284.61 467.631C1274.91 474.701 1268.29 483.21 1261.83 491.823C1259.65 494.723 1257.13 497.386 1253.74 499.762C1249.24 502.913 1245.38 506.551 1241.52 510.135C1238.01 513.403 1234.68 516.791 1231.62 520.285C1229.08 523.185 1227.09 526.324 1224.79 529.337C1220.94 534.399 1221.29 539.597 1223.37 544.967C1224.96 549.071 1225.95 553.292 1227.51 557.4C1228.46 559.902 1229.8 562.349 1231.29 564.717C1233.1 567.599 1235.25 570.375 1237.27 573.19C1239.7 576.573 1243.11 579.229 1247.73 581.222C1251.5 582.846 1255.05 584.774 1258.42 586.805C1262.13 589.042 1261.8 590.659 1257.69 592.623C1252.94 594.896 1252.71 595.423 1256.17 598.567C1261.52 603.426 1267.12 608.138 1272.44 613.01C1280 619.944 1287.95 626.759 1290.66 635.693C1291.63 638.909 1292.2 642.187 1293.11 645.413C1293.83 647.971 1294.13 650.745 1295.77 652.982C1300.89 659.933 1300.65 667.61 1302.39 675.019C1302.8 676.783 1302.96 678.575 1303.38 680.338C1304.04 683.187 1302.9 685.549 1299.72 687.292C1296.07 689.293 1291.88 690.884 1288.7 693.205C1286.1 695.113 1283.26 696.131 1279.89 696.766C1270.39 698.553 1265.2 697.059 1261.25 690.619C1257.66 684.776 1251.7 682.344 1243.1 682.47C1240.25 682.511 1237.25 682.508 1234.55 681.94C1228.24 680.603 1223.56 674.983 1224.02 670.032C1224.33 666.736 1222.74 664.116 1218.37 662.571C1215.96 661.72 1213.67 660.692 1211.29 659.8C1207 658.195 1204.3 655.725 1202.3 652.56C1201.01 650.516 1198.55 648.858 1196.66 646.997C1195.46 645.809 1193.86 644.681 1193.29 643.339C1191.58 639.354 1190.69 635.284 1192.97 631.194C1193.31 630.597 1193.15 629.86 1193.26 628.808C1189.65 628.808 1186.25 628.885 1182.85 628.788C1179.35 628.685 1177.4 627.366 1176.53 624.823C1174.85 619.928 1175.81 615.242 1178.3 610.696C1180.18 607.259 1182.56 603.961 1184.88 600.344C1180.29 598.056 1176.27 595.698 1171.79 593.953C1169.05 592.886 1165.63 592.618 1162.46 592.245C1158.69 591.801 1154.84 591.675 1151.04 591.32C1144.87 590.741 1141.1 588.076 1138.97 584.016C1137.96 582.085 1137.05 580.103 1135.69 578.299C1134.56 576.8 1132.86 575.525 1131.6 574.334C1126.44 575.07 1123.77 577.319 1121.61 579.743C1117.46 584.404 1111.57 585.348 1104.6 584.35C1101.59 583.921 1098.42 583.672 1095.68 582.777C1089.56 580.782 1083.12 580.309 1076.59 580.065C1068.27 579.754 1060.21 578.589 1052.37 576.61C1046.35 575.09 1046.36 575.08 1042.03 571.781C1040.38 572.506 1038.57 573.216 1036.89 574.059C1032.34 576.35 1027.34 577.517 1021.75 577.406C1019.83 577.368 1017.87 577.309 1016 577.553C1010.34 578.293 1004.89 577.748 999.563 576.388C997.156 575.774 995.019 575.743 993.215 577.144C988.495 580.808 982.427 581.289 976.222 580.376C972.496 579.828 970.237 580.589 968.512 582.692C966.876 584.685 965.438 586.762 963.767 588.998C965.825 590.243 967.615 591.23 969.25 592.333C972.632 594.618 972.292 596.953 968.386 598.734C966.787 599.464 964.592 599.894 963.652 600.925C961.575 603.2 959.94 605.532 962.777 608.486C964.498 610.277 965.079 612.828 965.352 615.085C965.628 617.399 963.509 618.388 960.492 617.46C957.358 616.494 954.467 615.111 951.53 613.838C950.26 613.288 949.141 612.56 947.89 611.876C946.982 612.334 946.258 612.568 945.788 612.959C939.623 618.116 930.574 619.787 922.089 617.126C918.438 615.982 915.246 615.877 911.81 617.604C909.83 618.599 907.349 619.185 904.974 619.648C900.897 620.44 898.831 619.471 897.758 616.594C897.167 615.01 896.862 613.332 895.919 611.864C893.171 607.596 887.361 606.339 881.759 605.694C872.904 604.676 863.878 604.436 854.947 603.719C849.672 603.295 845.232 603.683 841.803 607.177C839.565 609.457 835.95 609.588 832.579 608.118C831.126 607.483 829.867 606.593 828.619 605.745C823.182 602.051 818.15 601.513 811.311 603.544C806.419 604.997 802.094 606.796 798.744 609.851C796.306 612.077 793.257 612.236 789.516 610.622C786.558 609.344 783.796 607.833 780.905 606.473C780.317 606.195 779.543 606.125 778.183 605.796C777.81 607.617 777.294 609.182 777.208 610.761C777.079 613.098 777.072 615.455 777.344 617.782C777.753 621.263 775.357 623.142 771.082 624.291C766.592 625.497 762.213 626.911 757.748 628.16C754.61 629.039 752.741 630.482 752.357 632.988C751.873 636.181 749.101 638.097 745.073 639.336C737.653 641.616 730.308 642.776 722.153 640.997C715.521 639.549 712.921 641.904 714.628 646.85C715.55 649.514 716.289 652.229 716.748 654.954C717.167 657.427 716.382 657.959 712.831 658.53C709.855 659.008 706.878 659.486 703.797 659.982C702.449 658.64 701.247 657.442 699.641 655.841C698.805 656.892 697.984 657.586 697.668 658.381C694.86 665.44 694.279 672.381 698.808 679.323C701.315 683.166 703.012 687.287 704.909 691.324C708.076 698.062 709.349 704.751 702.345 711.579C699.863 711.24 696.7 710.929 693.64 710.34C691.815 709.988 690.101 709.268 688.433 708.589C683.086 706.412 677.806 706.031 671.921 707.818C666.093 709.589 660.054 709.302 653.935 707.744C646.988 705.975 643.642 702.342 641.702 697.607C640.676 695.105 639.435 692.645 638.169 690.197C637.785 689.452 637.183 688.665 636.369 688.148C624.34 680.49 617.683 670.885 616.353 659.448C616.019 656.596 615.133 654.005 612.831 651.738C607.652 646.632 603.689 640.953 597.417 636.336C594.185 633.958 592.18 630.646 590.05 627.602C587.909 624.538 586.213 621.304 584.484 618.098C582.899 615.159 581.044 612.231 580.184 609.172C578.746 604.056 574.506 600.506 568.933 597.629C567.527 596.904 565.261 596.485 563.568 596.685C555.427 597.647 547.339 598.858 539.241 600.004C535.343 600.554 532.133 601.881 529.576 604.143C526.072 607.244 522.331 610.203 518.741 613.252C513.831 617.422 509.111 618.43 501.842 616.414C493.08 613.985 484.415 611.37 475.743 608.779C470.97 607.352 466.221 605.876 461.545 604.295C454.282 601.837 449.602 598.12 447.099 592.292C442.537 581.661 436.619 571.334 431.505 560.819C430.246 558.233 427.875 557.295 424.547 556.508C420.222 555.482 416.13 553.953 411.951 552.616C408.742 551.587 407.167 549.603 405.797 547.397C403.305 543.376 400.661 539.399 397.921 535.463C395.988 532.689 395.547 532.62 391.118 533.195C388.851 533.491 386.581 533.771 384.322 534.108C379.835 534.774 375.599 534.527 371.518 532.823C369.384 531.931 366.931 531.437 364.657 530.71C359.339 529.01 354.217 529.635 348.5 531.383C348.418 534.278 348.35 537.27 348.242 540.263C348.07 545.119 347.034 546.117 340.424 546.657C337.852 546.867 334.972 546.711 332.562 546.081C319.149 542.564 305.567 539.723 291.146 539.53C275.484 539.322 261.092 535.44 246.635 531.694C239.975 529.967 233.247 528.362 226.49 526.838C214.031 524.025 201.758 520.922 189.665 517.318C171.607 511.935 155.5 504.289 139.307 496.664C136.815 495.491 134.799 494.162 134.645 491.8C134.505 489.663 132.231 489.216 129.811 489C120.665 488.182 111.509 487.403 102.374 486.532C93.8136 485.717 85.2743 484.786 76.7207 483.938C71.298 483.401 67.7905 481.568 65.8753 477.616C64.2005 474.161 61.2847 471.001 58.7706 467.77C57.0886 465.608 55.0192 463.597 53.3443 461.433C45.5187 451.314 34.7379 443.324 20.5931 437.683C10.2139 433.544 -0.211815 429.457 -10.4152 425.104C-16.4978 422.51 -22.2361 419.497 -28.0425 416.582C-29.7568 415.723 -31.2846 414.633 -32.7049 413.525C-36.4491 410.604 -37.8048 407.537 -34.2829 403.861C-32.5722 402.077 -31.7939 399.848 -30.3809 397.899C-27.8309 394.39 -28.3187 391.076 -30.8507 387.654C-33.0922 384.626 -34.6738 381.343 -36.9835 378.343C-40.3189 374.014 -44.0165 369.828 -47.6244 365.609C-49.328 363.62 -51.1642 361.686 -52.961 359.738C-55.9665 356.478 -57.2468 353.01 -55.6257 349.143C-54.2486 345.85 -53.2946 342.441 -51.5587 339.25C-47.3698 331.553 -50.8271 324.658 -56.7698 318.645C-61.4286 313.933 -64.8393 309.395 -64.3981 303.554C-64.2619 301.775 -64.6528 299.978 -64.7173 298.186C-64.8967 293.235 -66.4281 288.8 -71.8472 285.193C-73.9201 283.813 -74.8239 281.427 -75.8783 279.398C-76.6745 277.869 -76.7642 276.162 -77.338 274.563C-78.4713 271.398 -78.3063 268.295 -76.8897 265.202C-76.1114 263.5 -75.43 261.778 -74.6446 260.078C-72.0229 254.402 -72.2381 248.754 -74.3612 242.995C-75.7277 239.293 -76.2728 235.439 -77.3774 231.681C-78.0876 229.269 -78.7869 226.801 -80.1354 224.56C-81.7852 221.819 -81.0894 219.665 -77.9154 218.053C-75.3009 216.724 -72.4317 215.544 -69.4407 214.744C-67.0736 214.112 -65.4884 213.366 -64.6779 211.587C-61.8625 205.438 -59.0544 199.311 -58.667 192.756C-58.147 183.945 -57.3365 175.145 -56.924 166.332C-56.7268 162.083 -57.1823 157.82 -57.2719 153.563C-57.2934 152.619 -57.0747 151.666 -56.8487 150.73C-55.7405 146.149 -53.0686 141.938 -49.0841 138.418C-43.6255 133.595 -40.7492 127.893 -37.3027 122.409C-34.4048 117.8 -32.5793 112.841 -30.3306 108.025C-27.5906 102.156 -24.5457 96.346 -22.2684 90.3842C-17.5952 78.1547 -14.1917 65.7451 -13.9658 52.9911C-13.8618 47.073 -13.6107 41.1575 -13.6573 35.2394C-13.7004 29.9563 -12.732 24.8172 -10.6376 19.7552C-9.22093 16.3282 -8.09837 12.8396 -6.72118 9.40234C-5.94292 7.45877 -4.3398 6.95489 -1.44555 7.64645C4.50434 9.0707 9.63294 11.3151 14.3491 14.2587C17.3509 16.1328 20.7867 17.6779 24.201 19.169C28.286 20.9558 32.5861 22.4854 36.732 24.2027C41.4984 26.1746 44.3783 25.5627 46.6162 22.0021C46.8529 21.6267 47.0466 21.2128 47.4016 20.9018C51.1136 17.6548 51.483 14.4386 48.2122 10.7597C46.3759 8.69793 46.9354 6.20676 49.0585 4.13465C50.2815 2.93921 51.6515 1.81833 52.645 0.936523C58.0175 2.30422 62.8878 3.77475 67.9375 4.78509C89.1907 9.045 110.455 13.2792 131.79 17.3077C155.203 21.7296 178.97 24.9534 202.873 27.6708C233.975 31.2057 265.033 34.9386 296.174 38.2704C317.248 40.5251 338.405 42.4429 359.582 44.1243C381.155 45.8365 402.802 47.0808 424.418 48.523C447.755 50.0809 471.077 51.7674 494.436 53.1325C505.536 53.783 516.707 53.7675 527.84 54.1455C548.189 54.837 568.524 55.8396 588.881 56.2561C608.667 56.6597 628.482 56.6597 648.279 56.5261C677.527 56.3281 706.713 57.1585 735.824 59.0198C759.161 60.5109 782.444 62.4185 805.731 64.2875C809.475 64.5883 813.176 65.4932 816.755 66.4058C819.893 67.2054 821.507 68.8687 821.443 71.4987C821.368 74.5889 821.952 74.8974 826.17 75.5504C828.795 75.9566 831.453 76.2419 834.089 76.607C838.6 77.2266 843.105 77.7665 846.785 80.0725C849.962 82.0649 853.914 81.8233 857.777 81.5276C862.353 81.1754 866.955 80.3733 871.492 80.5327C877.571 80.7461 883.667 81.4633 889.625 82.4043C893.939 83.0856 894.581 84.2064 894.785 87.5048C895.033 91.5102 893.132 94.8678 888.692 97.2767C883.495 100.097 878.051 102.678 872.772 105.421C864.387 109.779 855.901 114.049 847.764 118.633C844.69 120.365 842.459 122.867 839.845 125.019C840.067 125.312 840.3 125.613 840.533 125.913ZM1143.33 350.051C1137.9 347.315 1132.5 344.539 1127 341.873C1125.77 341.276 1124.22 340.857 1122.75 340.703C1116.68 340.068 1110.59 339.531 1104.5 339.027C1101.08 338.744 1097.5 338.95 1094.22 338.32C1084.88 336.518 1076.93 337.7 1068.88 341.816C1063.01 344.824 1058.67 347.832 1058.11 353.128C1057.65 357.506 1053.87 359.894 1048.53 361.568C1043 363.298 1038.26 362.74 1033.85 359.923C1033.29 359.57 1032.59 359.342 1031.45 358.827C1029.84 360.794 1028.28 362.643 1026.79 364.524C1024.95 366.856 1022.73 369.175 1018.87 369.479C1013.94 369.867 1008.91 369.697 1003.93 369.592C997.834 369.463 991.744 369.155 985.673 368.923C984.575 371.278 983.786 373.116 982.865 374.918C981.093 378.387 979.737 382.029 977.291 385.238C974.695 388.642 971.062 391.362 964.567 391.166C959.904 391.025 956.913 393.953 953.345 395.706C952.896 395.927 952.979 396.719 952.842 397.249C951.871 401.028 950.884 404.802 949.945 408.586C949.593 410.003 949.353 411.432 948.933 413.484C954.342 412.777 958.807 412.178 963.279 411.607C970.445 410.692 977.607 409.774 984.78 408.9C987.459 408.573 989.148 407.676 990.249 405.758C992.691 401.509 995.044 400.617 1001.33 400.861C1007.07 401.085 1012.83 401.193 1018.56 401.491C1036.63 402.434 1053.97 399.439 1071.37 396.652C1074.52 396.148 1077.77 395.899 1081 395.676C1089.2 395.105 1097.62 395.254 1105.58 393.94C1117.31 392.002 1127.65 388.125 1131.6 378.914C1132.71 376.317 1134.92 374.327 1138.15 372.854C1141.88 371.16 1145.45 369.301 1149.15 367.576C1154.9 364.895 1155.51 362.632 1151.39 358.779C1150.33 357.797 1149.12 356.892 1148.18 355.856C1146.43 353.917 1144.83 351.912 1143.17 349.937C1150.19 355.311 1158.35 360.136 1159.7 367.972C1162.93 369.031 1165.84 370.095 1168.88 370.936C1170.42 371.363 1172.39 371.833 1173.82 371.507C1179.28 370.25 1184.66 368.756 1189.96 367.17C1191.26 366.779 1192.22 365.751 1193.26 364.956C1194.43 364.054 1195.51 363.093 1196.61 362.141C1200.98 358.344 1205.51 354.632 1209.67 350.716C1214.47 346.197 1215.84 340.739 1217.26 335.299C1217.73 333.463 1218.58 331.486 1220.1 330.021C1224.67 325.607 1229.47 321.224 1236.73 318.889C1245.22 316.159 1248.23 311.154 1248.5 304.942C1248.62 302.15 1249.19 299.294 1247.16 296.204C1245.28 297.194 1243.65 297.891 1242.29 298.801C1238.92 301.048 1235.61 303.343 1232.4 305.714C1230.02 307.475 1227.42 308.719 1223.84 308.57C1220.67 308.436 1219.46 307.755 1220.03 305.472C1220.9 301.981 1222.36 298.564 1223.64 295.129C1224 294.153 1224.59 293.219 1225.43 291.574C1222.27 291.936 1219.95 291.96 1217.88 292.487C1212.1 293.96 1206.33 295.497 1200.73 297.276C1192.96 299.739 1189.75 298.531 1189.54 292.638C1189.39 288.24 1189.47 283.836 1189.52 279.434C1189.55 276.684 1188.49 274.336 1184.9 272.383C1184.43 273.496 1183.93 274.347 1183.73 275.234C1183.13 277.799 1182.68 280.383 1182.12 282.954C1180.71 289.322 1178.36 295.644 1180.54 302.174C1180.8 302.932 1180.43 303.803 1180.3 304.618C1179.51 309.86 1175.08 313.647 1170.41 317.349C1162.58 323.561 1156.17 330.301 1154.46 338.867C1153.87 341.785 1151.55 343.891 1147.69 345.084C1145.79 345.672 1143.96 346.372 1141.91 347.086C1142.47 348.266 1142.9 349.158 1143.33 350.051ZM698.489 704.419C700.186 702.589 701.258 701.471 702.273 700.327C703.804 698.596 704.192 696.745 703.209 694.799C701.319 691.059 699.178 687.375 697.539 683.578C695.279 678.346 693.31 673.042 691.388 667.741C690.965 666.574 690.908 665.219 691.27 664.044C692.955 658.581 694.846 653.151 696.958 646.827C699.687 648.94 701.667 650.468 703.79 652.11C706.763 651.627 709.683 651.151 713.025 650.606C712.527 648.897 711.953 647.593 711.802 646.267C711.501 643.678 710.981 641.04 711.372 638.487C712.15 633.41 715.396 631.767 721.98 633.454C728.92 635.23 735.39 634.855 742.222 633.271C746.91 632.184 750.148 630.723 750.482 626.898C750.647 624.975 752.103 623.764 754.929 623.098C759.294 622.075 763.436 620.574 767.729 619.376C774.766 617.414 774.927 617.18 775.027 611.925C775.088 608.771 775.221 605.573 776.006 602.485C776.756 599.539 778.524 599.156 782.132 600.703C785.263 602.046 788.272 603.531 791.353 604.938C793.795 606.053 796.187 606.066 797.97 604.298C800.929 601.362 805.01 599.775 809.669 598.642C812.172 598.032 814.478 597.014 817.422 595.989C817.67 585.602 817.989 575.162 818.143 564.719C818.237 558.444 815.511 552.978 809.626 548.109C806.717 545.705 804.106 542.458 803.554 539.389C802.485 533.435 801.172 527.403 802.61 521.295C804.282 514.199 802.937 507.078 802.732 500.417C792.16 498.363 782.38 496.427 772.567 494.579C770.551 494.198 768.407 493.908 766.337 493.962C753.103 494.314 739.88 494.838 726.646 495.155C722.848 495.245 719.022 494.872 715.216 494.628C712.555 494.458 709.923 494.026 707.262 493.913C695.742 493.424 684.208 492.964 673.822 488.781C667.04 486.051 659.939 484.308 652.088 483.93C649.872 483.825 647.569 482.637 645.665 481.604C642.322 479.789 639.575 477.31 635.989 475.853C631.889 474.187 627.205 473.194 622.665 472.163C618.386 471.192 616.339 469.788 616.091 466.734C615.41 458.219 614.603 449.707 614.23 441.185C613.925 434.195 614.169 427.192 614.169 419.849C586.345 418.69 558.87 415.929 531.017 414.826C530.702 416.057 530.429 416.849 530.3 417.654C528.926 426.125 527.56 434.598 526.222 443.072C524.494 454.016 522.693 464.952 521.119 475.907C519.996 483.709 519.308 491.543 518.232 499.348C516.593 511.253 514.803 523.151 513.017 535.047C512.823 536.335 512.235 537.594 511.783 539.016C476.905 537.507 442.662 536.026 407.748 534.517C411.51 539.414 414.763 544.05 418.597 548.425C419.921 549.934 422.499 551.083 424.845 551.88C427.76 552.873 430.974 553.652 434.162 553.955C441.231 554.624 444.742 557.662 446.991 562.215C450.706 569.73 454.92 577.119 458.826 584.584C460.637 588.045 462.179 591.577 463.919 595.058C465.307 597.832 467.136 600.13 471.583 601.218C480.825 603.477 489.859 606.182 499.026 608.601C505.478 610.306 511.062 609.097 515.183 605.074C518.988 601.359 523.68 598.346 528.905 595.749C530.418 594.996 532.24 594.405 534.037 594.127C542.842 592.765 551.693 591.549 560.516 590.243C564.034 589.723 566.892 590.438 569.403 592.251C574.714 596.086 579.025 600.135 581.202 605.616C583.702 611.918 587.859 617.892 591.495 623.944C592.768 626.065 594.121 628.381 596.344 629.947C603.169 634.754 607.351 640.832 612.781 646.305C616.701 650.259 619.426 654.571 619.85 659.211C620.423 665.492 622.97 670.934 628.163 675.983C629.999 677.77 631.674 679.433 634.163 680.816C636.189 681.943 637.94 683.549 639.091 685.2C640.794 687.65 642.365 690.259 643.075 692.925C644.252 697.342 648.211 699.458 653.605 700.807C659.096 702.18 664.637 702.214 669.948 700.651C675.568 698.998 680.683 699.512 686.026 701.27C689.964 702.571 694.221 703.365 698.489 704.419ZM-72.8442 219.626C-70.8394 225.567 -69.1896 231.195 -67.0127 236.715C-64.3659 243.43 -62.2678 250.057 -65.9511 256.939C-66.6899 258.317 -66.9015 259.919 -66.8943 261.415C-66.8656 268.344 -66.5679 275.241 -58.8894 280.55C-55.676 282.774 -54.3884 285.571 -54.1983 288.738C-53.9724 292.451 -53.5815 296.16 -53.1368 299.862C-52.6526 303.899 -51.1822 307.698 -47.6782 310.999C-39.8347 318.388 -37.1592 326.453 -41.6315 335.417C-42.1479 336.453 -42.6178 337.505 -43.1414 338.538C-46.2687 344.726 -46.3333 350.647 -40.2794 356.077C-39.3254 356.933 -38.6189 357.93 -37.7474 358.838C-29.8286 367.067 -24.8219 376.296 -19.8368 385.536C-18.5994 387.829 -18.5241 390.12 -19.8116 392.387C-21.3287 395.058 -22.8027 397.753 -24.596 400.331C-26.3999 402.925 -25.862 405.118 -23.1291 407.105C-22.0568 407.887 -20.8374 408.568 -19.6431 409.26C-2.81556 419.001 16.2642 426.173 35.154 433.48C48.04 438.465 56.8662 445.951 64.4085 454.515C66.7576 457.183 68.8054 460.011 70.6632 462.875C73.3315 466.983 75.9604 471.122 78.1266 475.372C80.4865 479.999 80.9168 480.354 87.8601 480.83C94.9146 481.311 101.955 481.928 108.988 482.552C118.287 483.378 127.573 484.267 136.697 485.115C137.79 483.676 138.518 482.55 139.455 481.524C143.281 477.341 145.734 472.984 146.566 467.826C147.37 462.842 149.974 457.831 158.158 456.101C159.356 455.849 160.363 455.137 161.934 454.422C160.661 452.712 159.535 451.167 158.362 449.64C156.103 446.702 156.185 445.895 159.402 443.455C161.769 441.66 164.262 439.951 166.665 438.182C168.838 436.583 169.104 434.745 167.436 432.912C165.273 430.531 162.813 428.292 160.643 425.914C156.024 420.849 151.681 415.654 146.918 410.661C135.66 398.858 124.022 387.259 113.708 374.983C103.518 362.859 92.3252 351.169 81.7238 339.222C75.1391 331.8 68.8987 324.219 62.3786 316.768C59.1149 313.038 55.3635 309.524 52.1788 305.76C47.1793 299.85 41.8929 294.14 34.7308 289.417C31.9979 287.615 30.965 285.496 32.6722 282.782C33.7553 281.062 34.0458 279.082 34.6662 277.216C38.3028 266.241 41.9789 255.276 45.5439 244.288C48.4955 235.19 49.5284 225.781 54.223 216.965C55.3635 214.824 56.5076 212.685 57.8668 210.137C21.1777 203.815 -14.2061 195.195 -50.472 189.431C-50.9992 190.059 -51.2862 190.272 -51.3722 190.521C-53.9329 197.985 -56.4434 205.456 -59.058 212.911C-59.3736 213.808 -60.1697 214.636 -60.8548 215.448C-63.4693 218.536 -67.4968 219.791 -72.8442 219.626ZM328.854 168.019C329.37 167.266 329.736 166.921 329.847 166.538C331.709 160.175 332.989 159.298 341.744 158.676C343.257 158.568 344.831 158.615 346.338 158.777C355.444 159.764 364.535 160.808 373.634 161.831C375.721 162.065 377.805 162.471 379.896 162.486C397.573 162.617 415.283 163.211 432.914 162.605C450.118 162.013 467.046 162.53 483.935 164.798C492.384 165.931 500.888 166.854 509.804 167.924C510.151 166.523 510.571 165.206 510.797 163.872C511.966 156.905 512.874 149.912 514.269 142.968C517.174 128.528 520.308 114.113 523.382 99.6907C525.674 88.9419 528.059 78.206 530.282 67.4522C530.63 65.7734 530.332 64.0278 530.332 62.2051C525.731 61.9197 521.725 61.6549 517.719 61.4261C490.921 59.8836 464.109 58.4388 437.325 56.7806C420.491 55.7394 403.695 54.3948 386.882 53.1762C369.696 51.932 352.435 51.0707 335.345 49.3354C304.559 46.2118 273.881 42.5586 243.156 39.1291C239.078 38.6741 234.993 38.2422 230.962 37.8051C230.744 38.4967 230.51 38.7872 230.596 39.016C232.935 45.1423 231.959 50.9756 227.899 56.6212C226.587 58.4439 225.515 60.3978 224.769 62.3773C222.706 67.8584 223.589 72.9975 229.13 77.35C230.926 78.7614 231.959 80.2859 231.715 82.1883C231.472 84.101 231.073 86.006 230.862 87.9213C230.604 90.2479 230.195 92.5925 230.36 94.9114C230.557 97.7291 231.479 98.2793 235.47 98.976C238.827 99.5621 242.227 100.035 245.552 100.701C253.912 102.377 255.809 104.683 253.7 110.699C252.018 115.499 249.486 120.031 243.909 123.988C245.946 124.541 247.277 124.931 248.64 125.263C250.627 125.749 252.642 126.178 254.633 126.661C260.683 128.129 263.749 130.927 262.921 135.716C262.333 139.099 263.896 142.272 265.908 145.256C268.487 149.082 271.493 152.763 274.075 156.589C276.578 160.301 280.552 162.831 285.914 163.918C290.497 164.846 295.314 165.54 300.055 165.641C309.649 165.849 319.167 166.33 328.854 168.019ZM345.803 391.282C343.508 408.134 340.901 424.528 339.143 440.971C337.382 457.466 333.792 473.783 331.077 490.185C328.373 506.531 326.379 522.935 324.052 539.471C329.213 540.453 333.749 541.314 339.24 542.361C339.24 539.448 339.194 537.132 339.251 534.818C339.369 529.882 340.607 528.959 347.632 528.457C351.251 528.2 354.884 527.995 358.492 527.668C366.164 526.969 373.469 527.74 380.032 530.73C382.518 531.861 384.759 532.195 387.6 531.774C391.717 531.165 395.931 530.445 400.091 530.481C431.609 530.751 463.123 531.19 494.64 531.594C497.258 531.627 499.869 531.797 502.738 531.915C503.004 530.308 503.093 529.087 503.416 527.897C508.039 510.845 509.9 493.54 512.572 476.31C513.932 467.554 514.814 458.754 516.51 450.036C519.243 435.997 522.489 422.006 525.476 407.99C525.817 406.396 525.892 404.771 526.151 402.658C465.708 401.414 406.324 395.989 345.803 391.282ZM340.413 390.415C292.297 384.911 245.29 376.924 196.927 372.618C196.54 374.291 196.142 375.744 195.876 377.209C195.137 381.299 194.488 385.4 193.724 389.487C193.38 391.336 192.211 392.431 189.159 392.305C184.88 392.128 180.58 392.261 176.054 392.261C175.903 394.303 175.807 396.22 175.617 398.136C174.906 405.404 174.792 412.741 173.224 419.913C172.152 424.829 171.029 429.194 175.86 433.49C178.4 435.75 177.535 438.501 174.655 440.635C172.658 442.115 170.481 443.473 168.354 444.864C165.18 446.941 164.968 447.866 166.984 450.576C168.289 452.332 169.505 454.121 170.8 455.949C169.355 456.677 168.637 457.137 167.809 457.44C159.729 460.381 155.916 465.297 154.654 471.549C154.252 473.539 153.255 475.524 152.079 477.362C150.318 480.107 148.13 482.709 146.179 485.393C144.106 488.247 144.748 490.735 148.352 492.571C162.429 499.744 176.951 506.423 192.275 512.156C196.357 513.683 200.467 515.246 204.789 516.346C225.4 521.601 246.115 526.648 266.73 531.89C275.262 534.059 283.833 536.016 292.875 536.661C296.311 536.905 299.772 536.949 303.218 537.088C306.6 537.224 309.982 537.368 313.762 537.527C314.49 532.617 315.1 528.128 315.832 523.647C317.546 513.122 319.285 502.6 321.068 492.08C322.778 481.976 324.529 471.876 326.318 461.777C327.936 452.635 329.661 443.501 331.275 434.359C332.383 428.086 333.165 421.78 334.481 415.533C336.203 407.383 338.304 399.272 340.413 390.415ZM344.631 384.397C358.08 388.667 536.558 399.038 550.438 396.604C551.195 389.009 551.98 381.472 552.69 373.931C553.544 364.869 554.29 355.799 555.168 346.737C556.477 333.209 561.079 319.82 558.285 306.11C557.794 303.693 558.543 301.161 558.446 298.685C558.346 296.112 557.919 293.543 557.643 291.029C556.284 290.787 555.559 290.561 554.824 290.543C539.467 290.191 524.113 289.813 508.753 289.592C507.064 289.566 505.346 290.445 503.649 290.926C502.477 291.258 501.272 291.993 500.174 291.911C493.13 291.384 486.058 290.882 479.089 289.998C460.587 287.646 442.164 284.98 423.65 282.674C407.77 280.697 391.814 279.031 375.879 277.267C373.286 276.979 370.643 276.907 367.523 276.702C359.851 312.796 352.255 348.518 344.631 384.397ZM222.728 235.604C219.568 235.774 216.964 235.951 214.354 236.046C211.305 236.157 208.181 236.532 205.208 236.216C178.597 233.403 152.577 228.791 126.794 223.3C108.245 219.351 89.3736 216.173 70.6417 212.675C68.3248 212.243 65.9578 211.947 63.7665 211.61C62.2853 216.994 60.901 221.963 59.556 226.938C54.4131 245.97 50.0305 265.122 42.0578 283.699C40.9496 286.281 41.6239 288.229 44.3245 290.003C45.7339 290.929 47.1721 291.9 48.2193 293.029C57.2428 302.752 66.2483 312.488 75.1176 322.283C78.7721 326.316 81.9748 330.558 85.5792 334.615C96.6003 347.03 107.725 359.398 118.793 371.792C132.651 387.31 146.656 402.758 162.06 417.525C162.644 418.083 163.527 418.484 164.534 419.124C167.3 408.995 165.366 398.987 167.959 389.523C173.723 387.693 178.794 391.763 184.22 389.608C184.683 386.598 185.447 383.605 185.547 380.603C186.021 366.671 189.094 352.951 191.687 339.181C195.234 320.339 199.839 301.647 208.052 283.548C213.36 271.848 215.889 259.744 219.74 247.836C220.985 243.985 221.663 240.034 222.728 235.604ZM140.721 219.819C141.825 215.497 142.758 211.723 143.755 207.96C146.943 195.936 152.961 184.4 155.418 172.232C157.01 164.35 159.46 156.555 161.479 148.717C161.719 147.778 161.927 146.771 161.705 145.848C161.163 143.601 162.447 141.863 164.118 140.107C168.422 135.59 172.511 130.97 176.883 126.487C181.24 122.019 180.318 117.458 177.969 112.452C165.212 110.568 152.541 108.187 139.659 106.935C126.382 105.645 113.026 104.604 99.516 104.526C83.144 104.434 67.1987 101.678 51.2893 99.0608C44.9342 98.0145 38.5611 97.0016 32.145 96.1738C25.3343 95.2945 23.8567 94.2276 23.0713 89.2787C21.9989 82.5225 19.5135 76.3345 9.67597 73.324C8.62874 73.0027 7.7644 72.3754 6.71358 72.0617C4.31426 71.3444 1.85039 70.7352 -0.660118 70.0642C-1.11918 70.8868 -1.42043 71.2467 -1.51727 71.6298C-5.12163 85.5998 -11.3046 99.0403 -17.6992 112.445C-22.4656 122.435 -29.868 131.428 -37.9805 140.133C-43.1378 145.665 -48.7219 151.272 -49.848 157.846C-51.2933 166.289 -50.8056 174.898 -51.1606 183.439C-51.236 185.303 -49.8803 186.231 -47.3985 186.413C-44.9167 186.596 -42.3667 186.555 -39.953 186.956C-21.4471 190.023 -2.77251 192.681 15.4681 196.419C39.4505 201.332 63.5334 205.867 87.8243 209.913C103.884 212.587 119.7 216.001 135.631 219.068C137.084 219.343 138.576 219.505 140.721 219.819ZM509.14 172.199C506.203 172.006 503.542 171.957 500.949 171.639C489.978 170.286 479.068 168.646 468.058 167.507C457.628 166.427 447.217 165.031 436.536 165.692C429.665 166.116 422.736 166.245 415.832 166.232C404.693 166.211 393.557 165.87 382.417 165.844C374.319 165.826 366.336 165.551 358.428 164.078C352.682 163.008 346.779 162.378 340.929 161.607C339.861 161.466 338.724 161.587 337.3 161.587C336.679 163.18 335.908 164.592 335.596 166.052C333.947 173.778 332.584 181.536 330.783 189.244C329.105 196.429 326.82 203.54 325.128 210.726C321.9 224.426 318.884 238.152 315.817 251.872C314.799 256.436 313.888 261.009 312.927 265.585C344.05 267.992 374.8 269.971 405.388 272.848C435.92 275.72 466.286 279.488 496.961 282.89C503.703 245.923 505.733 209.104 509.14 172.199ZM740.135 217.649C784.478 217.649 827.794 217.649 871.452 217.649C871.395 213.045 869.924 208.823 867.607 204.741C867.202 204.026 866.291 203.391 865.423 202.89C860.058 199.789 854.739 196.632 849.195 193.704C845.185 191.586 840.863 189.766 836.649 187.848C828.017 183.922 825.349 179.045 827.881 172.034C829.243 168.268 829.584 164.605 827.396 160.766C824.879 156.35 824.086 151.753 828.139 147.326C830.972 144.231 833.436 140.961 836.05 137.76C837.478 136.012 839.027 134.276 838.163 131.911C836.151 131.744 834.297 131.59 832.292 131.423C831.266 128.818 831.668 126.574 833.662 124.296C842.474 114.216 855.647 107.573 868.956 101.025C875.117 97.9939 881.347 95.0297 887.473 91.9627C888.828 91.284 889.872 90.2865 891.723 88.9625C889.269 88.1347 887.544 87.3609 885.665 86.9495C877.015 85.0599 868.282 85.1474 859.47 86.4405C854.736 87.1346 849.905 87.5717 845.605 85.2939C841.157 82.9416 836.05 81.8747 830.707 81.1677C827.508 80.7435 824.337 80.1728 821.203 79.5404C819.506 79.1984 817.648 78.4811 818.082 77.0003C819.094 73.5451 815.651 72.7096 812.437 71.8458C810.124 71.2236 807.642 70.8328 805.186 70.5886C795.294 69.6091 785.392 68.6759 775.479 67.8172C756.772 66.1976 738.001 65.2798 719.154 65.2078C717.49 65.2001 715.826 65.2078 713.649 65.2078C713.986 66.8017 714.266 67.9921 714.481 69.1901C715.848 76.8281 717.727 84.4429 718.444 92.1144C719.979 108.601 720.714 125.127 722.206 141.616C722.712 147.21 721.894 152.928 724.462 158.399C725.316 160.221 726.173 162.075 726.596 163.965C728.002 170.207 728.974 176.503 730.559 182.719C732.697 191.105 735.275 199.432 737.614 207.792C738.507 211.006 739.267 214.24 740.135 217.649ZM307.131 239.172C301.145 238.604 295.869 237.979 290.558 237.625C272.963 236.455 255.354 235.403 237.759 234.252C234.065 234.01 230.55 234.151 227.028 235.555C227.028 236.234 227.071 236.907 227.021 237.576C226.558 243.895 226.712 250.276 225.486 256.518C222.064 273.956 216.878 291.173 211.893 308.416C207.489 323.64 203.605 338.944 199.775 354.251C198.57 359.069 198.283 364.008 197.54 369.131C244.81 372.075 290.744 378.196 337.343 384.49C340 371.965 342.54 360.028 345.057 348.092C347.615 335.985 350.276 323.887 352.661 311.763C355.003 299.857 359.317 288.18 361.512 275.956C344.068 273.82 327.444 271.773 310.811 269.76C307.647 269.377 304.344 269.352 302.418 268.058C304.004 258.333 305.51 249.101 307.131 239.172ZM246.542 103.647C241.194 102.531 236.546 101.724 232.056 100.59C224.277 98.6289 221.853 95.8678 222.602 89.9163C222.965 87.0447 223.614 84.173 224.467 81.3528C225.149 79.1007 224.374 77.4271 222.254 75.7226C215.655 70.4164 214.877 64.4803 219.217 58.1663C220.4 56.4412 221.756 54.7753 223.119 53.1171C227.082 48.2942 228.466 43.1756 226.77 37.2627C217.036 35.8744 207.382 33.9334 197.673 33.0747C195.622 43.3273 194.076 53.1685 191.616 62.8889C187.914 77.5068 183.37 92.0244 182.298 106.915C182.165 108.763 182.56 110.794 183.546 112.491C189.399 122.579 186.078 127.428 176.251 136.904C172.217 140.793 166.593 144.256 168.971 150.013C169.172 150.498 168.87 151.097 168.774 151.642C167.734 157.504 166.625 163.36 165.657 169.23C164.147 178.41 161.439 187.372 157.236 196.139C153.388 204.168 150.748 212.443 149.07 220.737C149.766 221.061 150.056 221.284 150.404 221.343C167.54 224.349 184.661 227.408 201.837 230.3C207.851 231.313 213.966 231.347 220.128 230.49C223.101 230.079 226.264 230.187 229.32 230.308C241.374 230.794 253.413 231.519 265.475 231.889C278.902 232.3 292.348 232.426 305.782 232.653C306.51 232.665 307.242 232.46 308.182 232.326C313.447 211.497 317.958 190.624 324.984 169.926C323.933 169.728 323.033 169.448 322.115 169.407C317.141 169.189 312.163 169.001 307.181 168.852C294.256 168.464 282.205 166.096 271.328 160.926C268.315 159.496 266.543 157.581 265.155 155.185C262.889 151.27 260.231 147.449 257.326 143.753C254.593 140.274 252.972 136.744 253.718 132.726C253.915 131.669 253.747 130.577 253.747 129.23C246.796 129.407 242.087 126.615 237.601 123.566C234.986 121.79 234.8 120.291 237.49 118.674C243.985 114.779 244.759 109.293 246.542 103.647ZM721.184 155.357C714.273 154.853 708.008 154.375 701.735 153.949C699.25 153.779 696.746 153.753 694.257 153.612C677.408 152.666 660.581 151.411 643.707 150.817C618.562 149.933 593.385 149.506 568.223 148.897C554.781 148.57 541.339 148.251 527.894 147.974C525.867 147.933 523.834 148.141 521.625 148.241C516.801 174.572 512.73 200.496 512.996 226.835C514.731 226.943 516.04 227.064 517.353 227.1C534.432 227.596 551.51 228.084 568.585 228.57C588.354 229.133 608.129 229.544 627.883 230.305C640.134 230.776 652.425 231 664.54 232.825C684.789 235.874 705.465 237.519 725.524 242.617C728.655 234.069 725.603 225.488 727.077 216.965C729.767 216.562 732.27 216.186 734.554 215.844C730.093 195.637 725.714 175.829 721.184 155.357ZM756.191 319.11C755.524 317.635 755.015 316.347 754.366 315.097C752.555 311.624 750.439 308.22 748.893 304.688C744.88 295.513 741.738 286.113 737.061 277.121C732.403 268.156 730.462 258.503 723.566 250.096C721.984 248.168 720.51 247.029 717.307 246.471C705.167 244.35 692.862 243.003 680.532 241.666C672.574 240.805 664.791 239.023 656.815 238.357C640.045 236.959 623.21 235.905 606.379 234.933C592.41 234.128 578.401 233.689 564.414 233.005C547.214 232.167 530.02 231.244 512.307 230.331C509.854 248.566 507.437 266.524 504.987 284.746C507.333 284.843 508.825 284.957 510.313 284.957C525.86 284.949 541.404 284.923 556.951 284.908C558.102 284.908 559.264 284.905 560.405 285.005C564.307 285.353 565.357 286.162 565.225 289.039C565.013 293.577 564.382 298.112 564.407 302.647C564.429 306.446 565.135 310.243 565.569 314.334C628.748 312.938 691.076 316.712 753.473 319.396C754.183 319.432 754.918 319.254 756.191 319.11ZM784.309 399.542C784.255 398.786 784.305 398.231 784.165 397.701C780.766 384.958 779.959 372.031 778.818 359.128C778.467 355.149 777.563 351.164 777.771 347.202C777.982 343.212 776.161 340.567 771.01 339.076C769.949 338.77 768.819 338.423 768.012 337.875C766.947 337.15 765.885 336.294 765.326 335.343C764.218 333.463 763.361 331.499 762.572 329.533C761.833 327.694 760.409 326.879 757.622 326.825C748.409 326.653 739.202 326.309 729.992 326.039C716.945 325.658 703.894 325.319 690.85 324.892C686.249 324.741 681.662 324.378 677.064 324.129C662.715 323.352 648.365 322.542 634.009 321.835C626.162 321.45 618.293 321.27 610.439 320.951C598.937 320.486 587.443 319.907 575.934 319.532C572.007 319.403 567.958 318.972 563.392 320.193C562.614 345.858 561.839 371.494 561.064 397.061C573.262 398.655 774.109 400.892 784.309 399.542ZM522.722 145.03C532.287 145.03 541.267 144.969 550.241 145.041C581.353 145.295 612.465 145.565 643.574 145.902C652.977 146.005 662.381 146.249 671.77 146.604C684.796 147.097 697.808 147.776 710.83 148.326C712.466 148.395 714.126 148.167 715.751 148.077C715.833 147.275 715.927 146.866 715.905 146.46C714.98 129.13 713.832 111.805 713.197 94.4667C712.874 85.6538 712.781 76.8512 710.784 68.1283C710.543 67.0871 710.116 66.0665 709.715 64.8608C651.453 64.1049 593.522 65.6937 536.042 62.2642C531.559 90.122 527.169 117.386 522.722 145.03ZM841.322 131.659C840.25 140.3 840.064 140.85 833.389 148.254C828.68 153.475 827.023 158.774 831.427 164.551C833.526 167.302 834.189 170.222 832.776 173.315C832.181 174.616 831.947 176.001 831.531 177.343C830.359 181.12 830.724 181.611 835.473 183.578C839.113 185.084 842.814 186.555 846.207 188.316C851.02 190.817 855.794 193.401 860.176 196.27C863.946 198.738 868.493 200.774 870.365 204.525C872.696 209.191 874.812 213.87 875.713 218.819C876.157 221.248 875.831 223.392 873.367 225.272C874.838 227.755 876.383 230.12 877.649 232.563C879.518 236.162 879.439 236.293 884.951 236.164C892.246 235.995 899.527 235.463 906.821 235.396C923.15 235.247 939.483 235.298 955.816 235.244C958.054 235.236 960.288 235.09 962.874 234.995C962.874 232.822 963.028 231.054 962.841 229.305C962.433 225.467 961.145 221.603 961.489 217.808C962.153 210.541 963.656 203.288 967.174 196.391C970.466 189.935 974.092 183.567 977.6 177.168C978.475 175.575 979.454 174.011 980.383 172.433C973.443 177.086 969.286 183.488 959.904 187.287C959.904 185.246 959.768 183.817 959.929 182.408C960.629 176.31 963.602 170.615 966.457 164.944C969.118 159.656 972.069 154.404 975.562 149.375C979.647 143.495 980.824 143.413 989.241 146.2C992.286 147.208 994.198 146.892 996.102 144.825C997.149 143.686 997.888 142.393 998.67 141.141C1000.27 138.585 1002.63 136.796 1006.8 136.577C1008.13 136.508 1009.41 136.125 1010.73 135.989C1018.12 135.22 1025.49 134.338 1032.91 133.806C1035.66 133.608 1038.55 134.184 1041.33 134.569C1042.41 134.719 1043.32 135.395 1044.39 135.701C1048.86 136.983 1052.05 135.634 1052.41 132.161C1052.58 130.418 1052.19 128.646 1052.04 126.659C1048.6 126.368 1045.57 126.08 1042.54 125.87C1040.27 125.71 1038.04 125.181 1037.58 123.543C1036.81 120.803 1034.32 120.826 1031.51 121.147C1029.43 121.384 1027.4 121.862 1025.33 122.129C1022.24 122.525 1019.4 122.651 1017.07 120.443C1016.17 119.592 1013.71 119.232 1011.97 119.252C1002.86 119.363 994.556 121.458 987.541 125.602C982.811 128.397 978.432 128.968 972.919 126.746C964.882 123.505 955.916 122.648 946.817 122.448C942.42 122.353 940.799 121.034 942.28 117.98C943.582 115.293 945.709 112.794 947.671 110.293C949.098 108.47 951.372 106.951 951.896 103.706C944.145 107.848 937.041 111.157 931.711 115.833C928.932 118.273 925.894 119.507 921.78 120.204C913.073 121.682 905.412 124.643 899.021 129.24C897.572 130.281 895.729 131.322 893.813 131.695C887.207 132.986 880.497 134.264 873.794 132.158C872.281 128.119 880.102 126.034 877.786 121.79C871.52 120.872 865.929 122.124 861.797 125.134C856.113 129.284 849.919 132.04 841.322 131.659ZM927.58 422.929C933.842 422.883 935.287 422.49 936.528 419.212C939.243 412.054 941.911 404.866 943.848 397.588C945.322 392.045 942.026 388.246 934.67 385.688C931.112 384.451 928.839 382.639 927.899 379.926C926.748 376.595 925.664 373.25 924.474 369.926C923.34 366.756 920.826 364.589 916.139 363.784C913.549 363.339 911.154 362.332 908.579 361.817C904.544 361.01 903.181 359.077 903.181 356.272C903.181 352.421 902.962 348.57 902.909 344.721C902.84 339.898 902.769 339.574 896.367 338.487C890.761 337.536 886.031 335.548 881.695 333.011C880.3 332.196 879.077 330.98 878.463 329.769C875.074 323.051 871.929 316.27 868.615 309.529C867.995 308.267 866.998 307.102 866.248 306.007C849.116 305.395 832.46 304.626 815.787 304.253C798.712 303.873 781.623 303.852 764.537 303.757C762.374 303.744 760.205 304.243 757.924 304.521C759.588 309.138 760.976 313.28 762.607 317.37C763.232 318.936 763.856 321.162 765.437 321.743C769.963 323.404 769.996 326.586 771.728 329.219C772.606 330.553 773.406 332.407 774.966 332.939C783.466 335.844 784.639 340.888 784.682 346.914C784.725 352.66 786.285 358.398 787.056 364.147C787.809 369.761 788.247 375.397 789.111 381.001C789.829 385.647 791.069 390.251 791.862 394.891C792.206 396.909 792.705 399.131 791.909 400.989C789.685 406.165 792.655 410.982 792.411 415.787C800.534 415.337 807.972 414.828 815.425 414.538C827.31 414.078 839.21 413.821 851.095 413.373C868.73 412.707 886.354 411.941 903.985 411.239C908.575 411.057 913.184 411.039 917.767 410.792C921.684 410.579 924.936 411.234 927.58 414.042C927.58 416.672 927.58 419.68 927.58 422.929ZM187.416 31.7276C184.744 31.3034 182.897 30.9358 181.018 30.7224C174.58 29.9897 167.967 29.7429 161.712 28.5321C135.427 23.4469 109.221 18.1458 83.0435 12.7804C74.9669 11.1248 67.0696 9.01672 59.1687 7.13486C55.0335 11.477 55.0156 13.6674 58.9248 17.6394C61.5393 20.295 61.3815 22.2618 58.2864 24.6681C56.9917 25.6758 55.238 26.478 54.3521 27.6323C52.9929 29.401 50.8805 29.9717 48.5923 29.6684C45.4757 29.2545 42.3376 28.5629 39.4828 27.5808C36.7463 26.6399 34.5514 24.8506 31.7791 24.0048C24.4054 21.7527 18.1973 18.3335 12.1936 14.67C8.71481 12.5465 4.69084 11.513 -0.419823 11.0631C-0.760529 12.4771 -1.17297 13.7599 -1.35947 15.0608C-1.9046 18.8939 -2.59679 22.7271 -2.79046 26.5731C-3.03075 31.3626 -3.02358 36.1701 -2.76536 40.9596C-2.44617 46.8622 -1.73605 52.752 -1.24471 58.6496C-1.04028 61.0945 -0.964966 63.5445 -0.846619 65.7554C0.0320587 66.1102 0.35125 66.339 0.695549 66.3621C8.91565 66.9226 15.4286 70.1413 21.7838 73.4783C23.3761 74.3138 24.8286 75.7226 25.3594 77.0672C26.6541 80.3476 27.6655 83.7206 28.2537 87.1038C29.0248 91.5308 30.0792 92.5103 36.194 93.2301C42.0543 93.9217 47.9683 94.459 53.7317 95.4539C69.6303 98.197 85.676 100.382 102.041 100.326C124.058 100.251 145.684 101.93 167.009 105.874C170.359 106.493 173.931 107.367 177.743 106.568C177.88 105.447 177.998 104.506 178.105 103.565C178.83 97.1224 179.45 90.6747 180.322 84.245C180.727 81.2397 181.821 78.2858 182.241 75.2805C183.446 66.6552 184.514 58.0223 185.547 49.3868C186.232 43.6538 186.767 37.9054 187.416 31.7276ZM783.843 407.761C774.378 407.761 765.954 407.83 757.529 407.748C739.475 407.573 721.421 407.285 703.367 407.108C687.612 406.954 671.856 406.882 656.098 406.776C646.881 406.715 637.649 406.866 628.45 406.55C613.878 406.049 599.328 405.208 584.764 404.56C573.269 404.049 561.775 403.522 550.266 403.175C543.803 402.979 537.322 403.139 530.505 403.139C530.476 405.956 530.081 408.633 532.165 411.347C537.211 411.347 542.193 411.309 547.171 411.358C552.357 411.409 557.546 411.484 562.729 411.653C567.714 411.815 572.688 412.137 577.673 412.342C582.852 412.558 588.031 412.738 593.213 412.905C598.202 413.067 603.198 413.157 608.187 413.337C613.197 413.517 618.343 412.715 623.113 413.725C622.471 416.186 621.535 418.057 621.571 419.916C621.783 430.243 622.181 440.568 622.618 450.892C622.783 454.741 623.146 458.589 623.562 462.43C623.917 465.69 626.294 467.785 630.932 468.374C638.926 469.392 645.234 472.066 649.144 477.403C651.195 480.203 654.595 481.493 659.178 481.123C665.096 480.642 670.451 481.763 675.694 483.84C685.614 487.771 696.298 489.764 707.749 489.396C710.421 489.309 713.115 489.591 715.797 489.632C721.927 489.725 728.106 490.175 734.174 489.764C749.621 488.72 765.025 487.599 780.636 489.213C782.028 462.173 779.722 435.076 783.843 407.761ZM1071.77 446.761C1074.57 455.36 1077.34 463.338 1079.74 471.372C1084.81 488.306 1089.43 505.309 1094.73 522.205C1097.88 532.255 1101.96 542.158 1105.68 552.114C1106.21 553.528 1107.12 554.87 1107.87 556.279C1136.48 555.531 1164.63 554.796 1192.85 554.058C1193.36 552.112 1193.88 550.135 1194.54 547.633C1201.74 547.633 1208.7 547.633 1216.14 547.633C1215.4 545.695 1214.94 544.379 1214.39 543.083C1211.79 537.023 1211.81 531.159 1216.8 525.64C1219.4 522.76 1221.97 519.863 1224.55 516.976C1225.46 515.961 1226.38 514.95 1227.49 513.714C1220.67 508.243 1214.24 502.805 1207.37 497.671C1200.48 492.522 1193.12 487.697 1186.03 482.686C1183.03 480.573 1179.38 478.665 1177.45 476.11C1172.59 469.659 1165.16 465.849 1155.98 463.112C1150.92 461.597 1146.37 459.199 1141.53 457.281C1137.63 455.736 1136.62 453.268 1136.7 450.327C1136.77 447.751 1136.72 445.175 1136.72 442.108C1131.74 442.473 1126.78 442.606 1121.96 443.249C1114.91 444.187 1107.95 444.84 1100.85 443.563C1098.63 443.162 1096.3 443.056 1094.42 444.475C1091.67 446.555 1088.08 446.828 1084.33 446.774C1080.14 446.715 1075.95 446.761 1071.77 446.761ZM869.261 302.04C872.263 305.953 875.049 309.099 877.169 312.46C881.039 318.591 884.421 324.884 888.237 331.034C889.04 332.332 890.55 333.726 892.253 334.353C896.647 335.975 901.252 337.343 905.91 338.536C911.376 339.937 913.51 341.621 913.546 345.711C913.582 349.701 913.284 353.693 913.23 357.686C913.184 361.1 913.245 361.226 918.072 362.067C927.486 363.704 933.067 367.849 934.749 374.697C935.082 376.05 935.251 377.476 935.99 378.716C937.328 380.96 938.447 383.505 940.728 385.168C944.221 387.714 948.621 389.619 952.853 391.914C956.354 390.477 959.825 388.107 964.896 388.261C965.847 388.289 966.883 387.51 967.823 387.04C974.074 383.911 976.764 379.227 978.281 374.17C980.092 368.137 981.469 362.036 983.141 355.979C983.998 352.876 985.163 349.819 986.049 346.719C987.301 342.333 987.186 338.004 985.185 333.682C983.356 329.733 982.908 325.643 983.363 321.46C983.732 318.046 983.571 314.599 983.625 311.166C983.675 308.143 983.671 305.12 983.743 302.094C983.808 299.343 984.202 296.582 984.001 293.844C983.356 284.918 982.595 275.995 981.659 267.081C981.48 265.385 980.63 263.616 979.515 262.097C976.843 258.456 973.741 254.98 970.986 251.371C968.974 248.733 967.242 245.985 965.251 243.093C942.736 243.592 920.435 241.921 897.533 242.841C898.322 244.252 898.773 245.126 899.297 245.977C901.542 249.623 903.723 253.289 906.083 256.893C911.631 265.372 903.992 276.637 891.131 278.82C889.133 279.159 887.207 279.712 884.632 280.311C888.204 285.018 886.486 289.07 883.467 293.14C880.364 297.328 875.426 299.976 869.261 302.04ZM865.308 223.703C843.42 223.392 820.987 223.259 798.579 222.703C776.279 222.153 754 221.181 731.233 220.377C731.484 224.012 731.786 227.022 731.879 230.035C731.997 233.887 732.374 237.769 731.832 241.581C731.47 244.142 731.47 246.453 732.948 248.805C733.73 250.05 734.077 251.433 734.666 252.741C741.713 268.452 748.764 284.162 755.847 299.862C756.066 300.346 756.661 300.739 757.02 301.117C774.611 299.346 792.034 298.86 809.522 299.127C826.998 299.395 844.475 299.541 861.952 299.775C865.552 299.824 868.626 299.662 870.516 296.793C871.391 295.464 873.923 294.685 875.745 293.695C877.535 292.723 879.378 291.8 881.333 290.785C880.472 288.908 879.643 287.376 879.08 285.795C878.517 284.211 877.678 282.532 877.922 280.974C878.521 277.187 880.863 274.267 886.623 273.169C892.149 272.115 897.651 270.845 902.141 267.773C899.545 259.6 894.556 252.168 889.764 244.702C889.234 243.877 887.103 243.299 885.604 243.137C883.158 242.874 880.615 243.098 878.123 243.029C876.14 242.975 874.368 242.646 873.604 241.021C870.975 235.439 868.271 229.873 865.308 223.703ZM791.159 491.813C792.941 492.098 794.771 492.525 796.639 492.661C803.041 493.126 806.588 495.738 807.926 500.098C808.212 501.037 808.453 501.983 808.636 502.934C809.378 506.847 810.092 510.76 810.798 514.567C817.093 515.004 883.104 511.161 886.235 510.253C888 506.474 890.453 502.78 891.389 498.898C893.376 490.666 896.998 482.94 902.719 475.686C904.881 472.942 906.628 470.004 909.095 467.415C913.087 463.225 917.581 459.281 921.723 455.16C922.774 454.114 923.588 452.846 924 451.594C924.736 449.363 924.61 446.943 925.686 444.82C928.774 438.73 927.687 432.392 929.097 426.325C925.908 425.551 922.634 425.431 921.088 424.197C919.446 422.885 919.449 420.518 918.811 418.829C905.756 418.829 892.888 418.664 880.031 418.87C864.867 419.111 849.715 419.79 834.551 420.06C822.253 420.281 809.945 420.165 797.643 420.237C796.008 420.248 794.376 420.487 792.576 420.633C792.102 444.45 791.636 467.834 791.159 491.813ZM1096.16 555.945C1096.16 553.883 1096.45 552.094 1096.1 550.369C1095.28 546.299 1094.38 542.224 1093.13 538.214C1087.71 520.778 1080.82 503.587 1076.86 485.902C1074.36 474.773 1070.9 463.752 1067.88 452.682C1067.41 450.962 1066.94 449.244 1066.38 447.159C1041.34 448.661 1016.76 450.131 991.666 451.635C991.666 492.604 991.666 533.134 991.666 573.668C996.561 574.093 1001.23 574.139 1005.6 574.974C1010.44 575.897 1014.99 575.419 1020.07 575.026C1018.13 570.401 1016.29 566.005 1014.2 561.035C1023.97 559.809 1033.01 560.578 1041.88 559.886C1050.66 559.202 1059.52 559.058 1068.31 558.431C1077.27 557.788 1086.18 556.847 1096.16 555.945ZM1025.11 572.612C1029.48 570.961 1032.69 569.308 1036.26 568.501C1041.69 567.275 1047.76 566.786 1051.65 570.475C1055.86 574.476 1061.3 576.134 1067.74 576.846C1070.97 577.203 1074.18 577.604 1077.42 577.856C1085.8 578.512 1094.28 578.566 1102.28 580.934C1106.63 582.222 1107.29 582.008 1109.69 579.042C1113.76 574.021 1120.03 571.859 1127.75 571.512C1140.05 570.959 1144.73 573.17 1149.19 581.409C1149.74 582.435 1150.42 583.433 1150.91 584.474C1152.28 587.374 1155.18 589.011 1159.25 589.533C1161.88 589.87 1164.57 590.083 1167.24 590.096C1173.83 590.132 1179.77 591.618 1184.95 594.395C1194.5 599.506 1196.24 597.246 1190.3 607.835C1188.66 610.756 1187.1 613.751 1186.19 616.815C1185.29 619.9 1185.25 623.119 1188.77 625.859C1190.08 625.515 1191.28 625.06 1192.55 624.9C1195.36 624.548 1198.22 624.065 1201.03 624.152C1204.66 624.265 1205.6 625.53 1204.63 628.029C1204.37 628.692 1203.99 629.33 1203.73 629.991C1201.62 635.402 1203.01 640.256 1207.83 644.74C1210.02 646.781 1211.86 649.074 1213.36 651.419C1214.87 653.758 1216.8 655.722 1219.84 657.049C1221.96 657.972 1224.17 658.813 1226.43 659.55C1231.92 661.347 1234.57 664.278 1234.51 668.674C1234.49 670.206 1235.35 671.883 1236.41 673.258C1240.05 678.007 1245.55 680.161 1253.39 680.063C1261.39 679.966 1267.87 682.41 1271.14 688.146C1272.42 690.38 1274.07 692.504 1276.32 694.087C1279.62 692.689 1282.4 691.521 1285.16 690.334C1290.35 688.102 1292.8 685.048 1290.94 680.631C1290.5 679.588 1290.41 678.467 1290.13 677.384C1287.99 669.062 1288.62 660.329 1282.92 652.532C1282.48 651.933 1282.29 651.231 1282.09 650.56C1280.08 643.84 1278.28 637.086 1276.01 630.412C1275.13 627.798 1273.77 625.093 1271.68 622.89C1264.67 615.496 1257.23 608.311 1249.94 601.051C1248.6 599.714 1247.02 598.487 1245.84 597.081C1243.44 594.235 1243.89 593.194 1247.75 591.359C1249.25 590.644 1250.64 589.813 1252.38 588.878C1251.21 587.993 1250.67 587.428 1249.93 587.052C1245.56 584.823 1240.96 582.795 1236.79 580.389C1233.71 578.607 1230.04 576.692 1228.59 574.239C1225.25 568.586 1220.39 563.298 1219.31 557.014C1218.99 555.199 1217.6 554.439 1215.1 554.292C1211.29 554.068 1207.5 553.631 1203.68 553.379C1201.88 553.261 1200.04 553.359 1198.22 553.359C1198.22 553.937 1198.2 554.212 1198.22 554.485C1198.7 560.796 1197.85 561.614 1189.29 561.603C1170.84 561.578 1152.4 561.578 1133.96 561.233C1116.68 560.912 1099.44 560.133 1082.17 561.624C1073.62 562.362 1064.93 562.246 1056.31 562.516C1053.81 562.593 1051.32 562.727 1048.82 562.747C1041.53 562.804 1034.24 562.814 1026.95 562.84C1025.51 562.845 1024.07 562.84 1021.98 562.84C1023.14 566.419 1024.1 569.432 1025.11 572.612ZM1166.31 392.812C1170.54 399.043 1167.87 404.468 1165.7 409.872C1164.98 411.687 1162.7 412.252 1160.24 412.358C1157.75 412.466 1155.26 412.581 1152.77 412.653C1148.72 412.769 1146.01 413.972 1144.61 416.906C1141.35 423.726 1134.29 427.611 1124.77 429.372C1121.98 429.886 1119.17 430.356 1116.35 430.75C1111.04 431.49 1106.53 432.961 1104.12 436.781C1103.52 437.74 1102.13 438.436 1101.2 439.303C1100.47 439.979 1099.88 440.735 1098.87 441.853C1102.34 441.853 1105.05 442.066 1107.67 441.812C1114.88 441.108 1122.03 440.11 1129.24 439.429C1132.42 439.131 1135.7 439.143 1138.89 439.344C1141.07 439.48 1142.35 438.974 1143.89 437.951C1146.26 436.388 1148.83 434.683 1151.75 433.925C1159.86 431.827 1168.07 429.801 1176.47 428.482C1184.29 427.253 1192.38 426.806 1200.38 426.343C1204.8 426.089 1208.45 427.454 1211.11 430.277C1214.75 434.141 1216.48 434.495 1222.69 433.315C1226.58 432.575 1230.44 431.737 1234.28 430.881C1241.88 429.192 1249.05 429.696 1255.81 432.819C1262.58 435.951 1269.32 439.12 1276.21 442.115C1281.88 444.583 1287.76 446.815 1293.75 449.234C1297.87 446.383 1301.76 443.756 1305.55 441.054C1308.06 439.267 1310.69 437.83 1314.43 437.588C1316.08 437.48 1317.91 437.061 1319.24 436.372C1324.06 433.886 1328.93 431.41 1333.34 428.572C1337.52 425.883 1341.64 423.284 1346.96 421.803C1349.6 421.068 1351.78 419.875 1353.18 417.623C1350.91 417.25 1349.24 417.042 1347.62 416.695C1341 415.276 1336.13 410.648 1336.25 405.951C1336.33 403.051 1336.86 402.694 1340.88 402.468C1342.36 402.383 1344.28 402.465 1345.24 401.853C1350.29 398.617 1355.8 395.503 1356.23 389.41C1352.75 390.02 1349.59 390.439 1346.56 391.128C1340.46 392.508 1335.69 391.182 1331.65 387.84C1327.78 384.641 1328.03 382.598 1332.58 379.857C1334.17 378.898 1336.56 378.441 1337.34 376.584C1336.38 376.525 1335.81 376.42 1335.26 376.466C1320.39 377.664 1305.47 378.672 1290.65 380.142C1273.75 381.819 1256.96 384.053 1240.07 385.783C1219.75 387.865 1199.56 390.649 1179 391.426C1175.04 391.57 1171.12 392.269 1166.31 392.812ZM1197.25 228.472C1207.16 228.472 1217.28 228.652 1227.39 228.406C1233.51 228.256 1239.59 227.364 1245.7 226.956C1262.27 225.85 1278.1 222.621 1293.54 218.364C1303.1 215.726 1312.58 213.232 1323.09 213.847C1326.42 214.042 1329.78 214.166 1331.98 216.179C1337.15 220.912 1343.04 225.31 1346.08 231.226C1356.55 229.853 1366.53 231.295 1376.67 233.732C1376.14 228.316 1375.84 223.115 1375.08 217.947C1373.71 208.654 1371.88 199.396 1370.6 190.097C1369.68 183.38 1367.86 177.132 1360.82 172.05C1358.73 170.541 1357.61 167.924 1357.21 165.705C1355.32 155.483 1354 145.228 1355.48 134.886C1355.86 132.209 1355.53 129.479 1355.53 126.633C1353.91 126.692 1352.75 126.638 1351.65 126.793C1343.37 127.947 1335.09 129.119 1326.82 130.328C1316.99 131.762 1309.3 134.875 1306.61 142.555C1305.13 146.76 1301.49 149.604 1295.12 150.92C1289.46 152.092 1284.18 154.293 1281.95 158.401C1284.36 160.954 1286.56 163.281 1288.71 165.569C1284.62 168.692 1284.22 171.811 1285.79 175.207C1286.27 176.248 1286.58 177.343 1286.79 178.428C1287.36 181.313 1286.2 182.835 1282.35 183.837C1279.67 184.537 1276.87 185.21 1274.05 185.426C1265.46 186.087 1257.03 187.174 1248.63 188.673C1240.7 190.09 1232.71 191.971 1224.24 190.524C1223.04 190.318 1221.14 190.905 1220.17 191.576C1214.71 195.329 1214.87 198.303 1217.89 201.838C1221.61 206.196 1221.23 207.052 1216.29 210.788C1214.17 212.384 1212.09 214.016 1210.24 215.767C1205.9 219.906 1201.7 224.115 1197.25 228.472ZM928.415 455.486C910.286 471.729 898.999 489.851 894.215 510.287C895.675 510.392 896.457 510.575 897.167 510.479C900.466 510.037 902.977 511.073 905.717 512.248C909.422 513.837 908.45 516.171 908.615 518.434C908.754 520.357 909.271 522.267 909.361 524.187C909.472 526.514 909.547 528.864 909.221 531.172C908.457 536.576 904.852 541.075 899.996 545.127C897.091 547.551 894.552 550.081 894.208 553.464C893.889 556.616 893.286 559.755 892.827 562.899C892.39 565.881 893.304 568.604 896.17 571.342C898.038 571.162 900.194 571.195 902.116 570.735C914.837 567.684 928.258 567.851 941.308 566.347C948.879 565.473 953.649 568.835 953.965 574.301C954.116 576.915 954.356 579.527 954.65 582.137C954.729 582.823 955.163 583.487 955.658 584.715C956.838 583.337 957.562 582.553 958.201 581.733C960.6 578.648 964.226 577.221 969.154 577.491C970.301 577.556 971.481 577.463 972.607 577.602C977.115 578.157 980.881 577.198 983.865 575.003C984.202 561.249 984.575 547.621 984.859 533.99C985.146 520.213 985.418 506.436 985.558 492.656C985.698 479.105 986.91 465.554 986.469 451.514C966.693 453.8 947.656 455.312 928.415 455.486ZM1100.38 249.952C1099.85 243.365 1101.89 237.938 1106.76 233C1109.85 229.868 1112.49 226.493 1115.06 223.12C1116.32 221.457 1117.14 219.585 1117.85 217.744C1118.64 215.716 1117.81 214.132 1115.23 212.764C1113.34 211.767 1111.45 210.242 1110.8 208.685C1109.27 205.013 1108.53 201.175 1107.35 197.419C1106.77 195.555 1106.39 193.56 1105.15 191.923C1102.74 188.732 1099.97 188.601 1096.73 191.406C1094.66 193.2 1093.14 195.314 1091.17 197.17C1087.6 200.53 1081.65 201.309 1076.85 198.918C1075.66 198.327 1074.44 196.807 1074.66 195.895C1075.64 191.858 1076.45 187.65 1080.19 184.339C1086.3 178.924 1090.55 172.775 1094.48 166.492C1097.17 162.18 1095.03 157.949 1088.85 155.972C1075 151.532 1060.93 147.46 1045.97 145.274C1043.64 144.933 1041.19 144.981 1039.47 144.886C1037.77 147.285 1037.08 149.676 1035.04 150.781C1032.19 152.324 1032.15 154.008 1032.06 156.093C1031.97 158.278 1031.73 160.514 1030.96 162.62C1030.05 165.106 1028.47 167.448 1025.3 168.78C1021.68 166.715 1026.76 162.471 1021.06 160.982C1016.05 166.43 1011.47 171.824 1006.27 176.901C1003.65 179.467 1002.81 182.061 1003.34 185.002C1003.66 186.763 1004.64 188.46 1004.97 190.221C1005.62 193.74 1006.09 197.28 1006.5 200.82C1006.67 202.317 1006.4 203.836 1006.5 205.34C1007.04 213.59 1007.61 221.837 1008.22 230.084C1008.33 231.593 1008.5 233.11 1008.87 234.594C1010.23 240.046 1011.07 245.494 1009.49 251.008C1009.28 251.726 1009.66 252.528 1009.78 253.361C1039.98 252.222 1069.82 251.101 1100.38 249.952ZM1180.93 233.827C1180.93 236.635 1180.84 239.082 1180.94 241.525C1181.28 250.186 1181.22 258.86 1183.3 267.454C1183.81 269.575 1184.45 271.115 1187.71 271.578C1190.64 271.992 1192.39 273.455 1193.12 275.45C1193.84 277.416 1194.61 279.414 1194.8 281.424C1195.12 284.993 1194.95 288.584 1195.14 292.16C1195.2 293.132 1195.82 294.086 1196.05 294.705C1203.34 293.245 1209.86 291.584 1216.59 290.708C1221.39 290.083 1226.54 290.882 1231.4 290.368C1236.29 289.851 1240.93 288.214 1245.81 287.569C1266.01 284.9 1286.25 282.424 1306.48 279.874C1314.96 278.805 1323.46 277.812 1331.91 276.594C1333.84 276.316 1335.98 275.534 1337.28 274.501C1342.53 270.31 1345.99 259.551 1339.59 253.71C1337.58 251.875 1335.67 249.967 1333.89 248.008C1329.19 242.828 1329.46 240.756 1335.25 235.966C1336.85 234.637 1338.51 233.342 1339.95 232.187C1335.78 228.434 1332 224.824 1327.85 221.436C1326.62 220.423 1324.43 219.541 1322.59 219.444C1312.54 218.904 1302.79 219.469 1293.43 222.804C1286.24 225.367 1278.51 227.169 1271 229.269C1262.81 231.56 1254.03 231.676 1245.5 232.084C1234.81 232.599 1224.02 232.216 1213.28 231.997C1207.17 231.874 1201.06 231.377 1194.97 230.907C1189.44 230.483 1184.98 232.244 1180.93 233.827ZM811.1 518.465C810.884 520.035 810.777 521.267 810.537 522.483C809.407 528.151 811.286 533.723 811.498 539.337C811.666 543.769 813.721 547.541 817.666 550.59C823.72 555.269 825.933 560.801 825.847 566.863C825.743 574.422 825.151 581.98 824.671 589.536C824.072 598.989 823.121 596.007 832.812 601.503C833.407 601.84 834.092 602.151 834.806 602.315C837.288 602.884 839.823 603.125 841.66 601.426C845.038 598.292 849.607 597.95 854.603 598.3C863.935 598.95 873.296 599.413 882.606 600.192C892.149 600.989 897.256 604.398 899.677 611.097C900.595 613.635 901.976 614.352 905.412 613.838C907.087 613.589 908.866 613.27 910.286 612.63C914.812 610.586 919.259 610.897 924.033 612.182C931.726 614.252 940.369 611.918 944.927 606.848C945.587 606.115 946.606 605.547 947.334 604.997C952.566 606.532 953.786 611.938 961.694 611.244C959.269 609.416 958.742 607.411 955.55 606.899C952.717 606.444 952.426 604.951 952.828 603.038C953.363 600.506 955.848 599.403 958.409 598.135C961.974 596.372 962.325 594.279 959.635 592.33C956.325 589.932 953.104 587.466 949.651 585.181C946.921 583.376 945.587 581.276 945.519 578.638C945.444 575.784 945.171 572.933 944.974 569.882C943.679 569.882 942.743 569.799 941.839 569.894C930.087 571.116 918.058 571.116 906.692 574.08C903.809 574.831 900.807 575.113 897.701 574.175C889.997 571.843 884.621 565.131 885.898 559.153C886.332 557.112 886.942 555.084 887.179 553.032C887.684 548.608 890.044 544.859 894.161 541.533C898.709 537.857 901.406 533.381 902.995 528.676C904.436 524.411 904.268 520.038 903.095 515.48C872.248 516.472 841.982 517.459 811.1 518.465ZM1159.44 370.957C1143.79 374.075 1136.98 382.263 1132.65 392.115C1140.15 391.907 1147.61 391.711 1155.07 391.48C1156.01 391.452 1156.96 391.272 1157.87 391.079C1163.54 389.876 1169.11 388.297 1174.89 387.518C1182.59 386.482 1190.52 386.315 1198.24 385.33C1227.88 381.554 1257.45 377.476 1287.1 373.767C1299.76 372.183 1312.6 371.358 1325.31 369.949C1334.9 368.885 1344.41 367.44 1354.68 366.067C1349.72 359.092 1339.95 355.254 1338.02 347.729C1328.48 346.097 1324.26 341.063 1322.08 334.888C1320.63 330.787 1319.09 326.895 1312.37 325.699C1311.67 325.574 1310.97 325.188 1310.48 324.789C1306.18 321.298 1300.94 318.159 1297.95 314.159C1294.83 309.989 1290.59 306.991 1285.17 305.058C1278.33 302.618 1272.15 299.819 1266.63 295.978C1263.1 293.518 1257.52 295.541 1257.05 299.096C1256.86 300.461 1257.05 301.85 1256.99 303.228C1256.67 310.076 1254.16 315.982 1244.39 319.023C1241.78 319.835 1239.38 321.072 1237.08 322.306C1229.86 326.183 1223.71 330.432 1223.44 337.672C1223.28 341.785 1221.57 345.883 1218.16 349.326C1214.29 353.223 1210.31 357.092 1205.9 360.673C1199.74 365.679 1192.45 369.566 1183.2 371.373C1174.76 373.021 1166.46 374.98 1159.44 370.957ZM1067.7 256.752C1067.55 257.513 1067.41 257.79 1067.46 258.053C1070.45 276.241 1073.32 294.438 1076.51 312.609C1077.58 318.714 1079.43 324.753 1081.03 331.265C1088.32 331.877 1095.14 332.332 1101.92 333.044C1111.68 334.07 1121.95 333.944 1130.07 339.024C1133.47 341.155 1136.67 340.616 1140.58 339.204C1145.32 337.497 1147.48 335.021 1148.03 331.522C1148.53 328.34 1149.44 325.27 1151.92 322.54C1156.21 317.812 1160.25 312.971 1166.53 309.331C1169.34 307.701 1171.56 305.541 1174.06 303.639C1176.5 301.788 1177.49 299.554 1176.52 297.163C1174.96 293.325 1175.68 289.52 1176.21 285.687C1176.41 284.185 1176.79 282.684 1176.79 281.183C1176.84 267.814 1176.83 254.448 1176.8 241.08C1176.8 239.915 1176.57 238.751 1176.46 237.586C1176.08 237.478 1175.7 237.37 1175.32 237.262C1174.1 238.555 1172.91 239.861 1171.66 241.139C1166.82 246.096 1161.14 249.985 1151.75 249.055C1148.51 248.736 1146.31 249.638 1144.6 251.664C1143.55 252.903 1142.04 254.207 1140.28 254.826C1130.07 258.418 1119.65 260.127 1108.88 255.793C1107.63 255.286 1105.99 255.068 1104.53 255.068C1101.9 255.07 1099.28 255.371 1096.64 255.489C1087.09 255.921 1077.53 256.328 1067.7 256.752ZM932.142 450.532C940.444 449.995 947.682 449.62 954.883 449.036C965.183 448.203 975.43 446.902 985.755 446.368C1007.21 445.254 1028.7 444.478 1050.17 443.637C1060.5 443.234 1070.72 441.699 1081.2 442.501C1083.91 442.709 1087.5 441.758 1089.6 440.447C1093.74 437.853 1097.43 434.799 1100.7 431.616C1102.76 429.616 1105 428.096 1108.21 427.408C1112.61 426.464 1117.15 425.816 1121.53 424.819C1129.94 422.903 1136.69 419.284 1140.15 413.391C1142.25 409.823 1145.38 408.196 1150.51 408.041C1152.04 407.995 1153.56 407.581 1155.07 407.625C1158.58 407.725 1160.4 406.638 1160.91 404.141C1161.19 402.794 1162.05 401.514 1162.48 400.177C1163.03 398.524 1163.4 396.84 1163.97 394.701C1151.82 395.125 1140.56 395.485 1129.3 395.945C1127.21 396.03 1125.08 396.359 1123.12 396.858C1109.83 400.231 1096.23 401.154 1082.29 399.812C1080.98 399.686 1079.58 399.732 1078.28 399.912C1072.25 400.748 1066.12 401.357 1060.25 402.604C1047.9 405.231 1035.33 405.648 1022.62 405.275C1016.09 405.085 1009.58 404.735 1003.06 404.475C998.957 404.311 995.697 405.301 994.782 408.388C993.911 411.332 991.271 412.419 987.527 412.764C981.064 413.358 974.594 413.936 968.142 414.602C961.145 415.325 954.166 416.139 947.355 416.895C946.147 419.194 944.988 421.088 944.16 423.055C943.016 425.77 938.633 424.649 936.661 426.497C937.281 434.331 935.692 442.043 932.142 450.532ZM1027.5 354.766C1030.83 356.262 1033.7 357.55 1036.61 358.858C1037.74 358.442 1038.74 358.033 1039.78 357.704C1045.54 355.886 1048.96 352.907 1049.3 348.256C1049.4 346.894 1050.12 345.562 1050.32 344.199C1050.71 341.536 1052.62 339.556 1055.56 338.081C1060.42 335.641 1065.3 333.204 1070.31 330.929C1074.53 329.011 1074.69 328.939 1073.69 325.298C1071.92 318.825 1069.62 312.388 1068.62 305.85C1066.58 292.453 1065.26 278.997 1063.6 265.57C1063.24 262.747 1062.68 259.94 1062.22 257.168C1043.47 257.168 1025.32 257.168 1007.78 257.168C1004.82 259.544 1002.51 262.305 999.133 263.86C995.822 265.385 991.411 265.68 987.068 266.606C987.681 271.349 988.334 276.398 988.983 281.447C989.862 288.288 990.909 295.124 991.579 301.976C992.802 314.416 989.675 327 993.936 339.348C994.026 339.61 993.936 339.898 993.975 340.171C994.987 347.164 992.433 353.819 990.249 360.514C989.84 361.771 989.675 363.069 989.377 364.458C997.641 365.658 1005.23 366.262 1012.92 365.818C1014.53 365.725 1016.46 365.301 1017.56 364.527C1019.84 362.92 1021.73 361.018 1023.63 359.159C1024.95 357.874 1026.03 356.457 1027.5 354.766ZM1440.71 158.378C1440.96 157.098 1441.23 156.069 1441.33 155.033C1441.96 148.673 1444.9 143.272 1452.88 139.714C1457.74 137.549 1461.26 134.693 1462.51 130.389C1463.4 127.358 1465.55 126.767 1469.79 127.279C1474.3 127.824 1475.98 127.168 1477.6 124.08C1478.21 122.926 1478.75 121.72 1478.99 120.504C1479.7 116.89 1482.84 114.697 1486.92 112.843C1492.17 110.455 1497.78 108.91 1503.82 107.825C1507 107.254 1509.84 105.578 1512.68 104.241C1515.17 103.071 1513.58 101.22 1513.82 99.6624C1513.95 98.8809 1514.53 98.125 1515 97.3872C1516.65 94.7521 1516.59 94.1968 1513.34 92.6054C1510.65 91.2891 1507.89 89.96 1504.91 89.0602C1496.29 86.4482 1488.9 82.6973 1482.33 77.9104C1476.5 73.6659 1473.95 68.8122 1474.99 62.9404C1475.58 59.6651 1476.22 56.395 1476.67 53.1094C1476.81 52.0682 1476.9 50.7468 1476.16 49.9704C1472.78 46.42 1468.67 43.6589 1461.89 44.4713C1459.63 44.7413 1457.3 44.7438 1455 44.8672C1448.1 45.24 1443.09 43.2862 1440.2 38.7075C1439.57 37.7049 1438.95 36.6894 1438.21 35.7304C1436.55 33.5966 1434.5 33.3215 1432.53 35.3011C1431.02 36.8153 1429.95 38.6946 1429.4 40.5225C1428.22 44.4174 1427.76 48.4253 1426.55 52.3124C1425.34 56.1636 1425.35 59.9299 1426.35 63.7733C1427.35 67.609 1427.34 71.4113 1425.46 75.1802C1423.9 78.3115 1423.7 81.4633 1424.37 84.8851C1426.08 93.6235 1424.5 102.053 1417.11 109.372C1418.3 113.913 1419.38 118.383 1420.67 122.823C1421.85 126.849 1423 130.893 1424.64 134.829C1426.08 138.295 1426.92 141.716 1426.84 145.354C1426.79 147.789 1427.66 150.254 1428.41 152.661C1428.67 153.504 1429.56 154.514 1430.57 154.918C1433.7 156.162 1437.03 157.147 1440.71 158.378ZM1233.23 507.95C1235.63 506.047 1237.46 504.659 1239.19 503.212C1242.54 500.409 1245.93 497.62 1249.14 494.733C1251.03 493.036 1252.95 491.28 1254.25 489.339C1257.06 485.131 1259.31 480.727 1262.13 476.521C1263.78 474.066 1265.79 471.66 1268.17 469.544C1273.34 464.955 1278.86 460.572 1284.21 456.085C1284.68 455.695 1284.9 455.157 1285.02 454.98C1277.68 451.977 1270.52 449.09 1263.43 446.129C1259.12 444.331 1254.88 442.455 1250.67 440.55C1244.33 437.683 1237.67 436.683 1230.34 438.326C1225.95 439.311 1221.47 440.105 1217 440.907C1210.58 442.059 1209.79 442.105 1206.53 438.159C1203.01 433.907 1197.91 432.595 1191.62 432.593C1180.23 432.588 1169.07 433.732 1158.21 436.215C1153.93 437.195 1149.69 438.287 1144 439.681C1150.1 442.146 1149.97 445.535 1150.17 448.864C1150.26 450.37 1150.66 451.869 1150.75 453.376C1150.88 455.517 1152.28 457.013 1154.88 457.98C1158.94 459.497 1162.91 461.186 1167.11 462.477C1177.88 465.785 1187.64 469.901 1193.52 477.588C1194.33 478.652 1195.58 479.58 1196.79 480.454C1205.42 486.684 1214.18 492.823 1222.71 499.121C1226.28 501.754 1229.39 504.703 1233.23 507.95ZM961.5 182.305C962.038 182.472 962.573 182.639 963.11 182.804C964.61 181.603 966.177 180.441 967.597 179.197C971.234 176.006 974.745 172.739 978.453 169.592C979.188 168.97 980.709 168.299 981.649 168.435C983.704 168.733 983.202 170.117 982.875 171.168C982.373 172.775 981.878 174.407 981.053 175.937C977.323 182.863 973.181 189.686 969.76 196.686C966.643 203.062 964.753 209.679 965.445 216.528C965.847 220.508 966.374 224.482 966.657 228.467C967.009 233.349 969.193 237.841 972.019 242.208C973.712 244.823 975.57 247.386 977.259 250.003C979.508 253.492 982.925 256.132 987.581 258.089C995.234 261.305 1007.06 256.513 1005.91 250.093C1005.64 248.594 1005.45 247.085 1005.3 245.576C1004.82 240.648 1004.37 235.717 1003.92 230.786C1003.71 228.588 1003.43 226.393 1003.35 224.192C1003.12 217.724 1002.67 211.248 1002.91 204.785C1003.05 201.16 1002.96 197.735 1001.12 194.275C997.128 186.763 999.197 179.531 1004.71 172.898C1009.4 167.25 1015 161.99 1020.08 156.504C1021.19 155.301 1022.38 154.748 1024.35 155.085C1026.21 155.401 1026.64 156.373 1026.73 157.561C1026.84 159.057 1027.01 160.553 1027.15 162.047C1029.41 159.432 1029.32 159.437 1028.9 156.172C1028.4 152.267 1028.17 148.421 1034.1 146.118C1035.05 145.747 1035.41 144.534 1035.94 143.678C1037.18 141.662 1038.36 139.629 1039.68 137.397C1037.69 137.397 1035.3 137.068 1033.17 137.459C1026.98 138.598 1020.73 138.953 1014.38 139.246C1007.38 139.57 1001.51 141.197 998.928 146.832C997.156 150.709 993.753 151.141 988.545 149.19C984.27 147.586 982.631 147.799 979.676 150.501C978.736 151.36 977.998 152.339 977.248 153.298C971.764 160.286 968.16 167.841 964.323 175.323C963.161 177.593 962.433 179.976 961.5 182.305ZM1360.07 125.24C1360.07 129.353 1359.88 132.634 1360.11 135.899C1360.71 144.539 1361.35 153.182 1362.28 161.808C1362.78 166.44 1365.01 170.549 1370.4 173.657C1372.67 174.97 1374.41 176.952 1375.77 178.857C1378.36 182.47 1378.17 182.488 1383.97 182.421C1400.02 182.241 1412.72 176.253 1425.14 170.003C1428.12 168.505 1430.6 166.692 1434.35 166.134C1436.56 165.805 1438.66 165.088 1440.73 164.564C1441.12 160.923 1440.91 160.491 1436.65 159.836C1431.02 158.969 1427.03 156.71 1424.1 153.234C1421 149.565 1420.1 145.598 1420.15 141.385C1420.18 138.945 1420.35 136.3 1419.17 134.104C1416.14 128.492 1414.72 122.759 1414.48 116.797C1414.41 114.884 1413.93 112.969 1413.46 111.077C1412.77 108.311 1409.12 107.254 1406.39 109.241C1404.62 110.527 1403.38 112.388 1402.66 114.152C1402.01 115.733 1401.2 116.797 1399.08 117.558C1391.32 120.335 1383.39 122.654 1374.71 123.502C1369.64 123.993 1364.61 124.692 1360.07 125.24ZM1346.91 337.348C1347.62 337.379 1348.34 337.412 1349.05 337.443C1349.43 336.075 1349.98 334.718 1350.17 333.337C1350.69 329.628 1350.98 325.818 1354.4 322.792C1358.8 318.91 1358.53 314.362 1358.55 309.84C1358.55 308.968 1358.03 307.565 1357.21 307.315C1352.5 305.883 1349.1 302.878 1343.48 302.41C1336.51 301.829 1332.03 297.903 1331.42 292.769C1331.15 290.458 1331.54 288.106 1331.61 285.772C1331.64 284.463 1331.61 283.152 1331.61 281.481C1330.09 281.751 1329.18 281.877 1328.3 282.075C1307.52 286.787 1286.04 288.738 1264.48 290.35C1255.71 291.006 1246.9 291.433 1238.12 292.034C1236.65 292.134 1234.56 292.263 1233.91 292.944C1231.51 295.469 1228.82 298.006 1228.68 301.927C1231.17 300.4 1233.04 299.256 1234.9 298.107C1239.55 295.237 1244.58 293.217 1251.08 293.877C1252.73 294.047 1254.62 293.97 1256.18 293.559C1266.76 290.751 1274.83 293.474 1281.69 299.22C1282.77 300.13 1284.01 301.228 1285.49 301.572C1291.71 303.027 1296.22 306.282 1301.34 308.904C1302.54 309.521 1303.7 310.184 1304.7 310.729C1308.87 309.791 1311.21 308.156 1312.09 305.233C1312.91 302.536 1314.16 302.068 1317.82 302.392C1321.24 302.695 1324.43 303.248 1327.09 305.174C1329.77 307.11 1333.03 308.621 1336 310.354C1339.33 312.303 1341.88 314.611 1343.07 317.684C1345.04 322.743 1346.39 327.846 1346.33 333.124C1346.32 334.536 1346.7 335.942 1346.91 337.348ZM1385.18 238.211C1389.83 236.974 1393.5 236.146 1396.98 235.031C1399.77 234.136 1402.37 232.93 1404.99 231.786C1406.12 231.295 1407.57 230.763 1408.03 229.992C1410.61 225.637 1416.03 223.93 1421.44 222.079C1424.18 221.143 1427.42 220.241 1429.13 218.616C1432.56 215.351 1435.71 211.782 1437.87 208.016C1441.44 201.792 1437.53 197.964 1428.16 197.735C1416.96 197.463 1405.88 198.07 1395.08 200.314C1390.37 201.293 1385.79 202.579 1380.81 203.805C1382.23 214.978 1383.67 226.282 1385.18 238.211ZM1352.99 289.263C1355.34 287.803 1357.02 287.049 1358.15 286C1361.07 283.293 1363.78 280.46 1366.53 277.661C1366.97 277.216 1367.29 276.702 1367.57 276.195C1371.17 269.845 1372.42 263.251 1372.01 256.405C1371.83 253.577 1372.43 250.703 1373.01 247.885C1373.43 245.877 1369.33 237.059 1367.05 235.912C1366.74 235.756 1366.4 235.583 1366.04 235.524C1360.09 234.511 1354.15 233.432 1348.15 232.583C1346.85 232.398 1345.05 232.794 1343.95 233.378C1341.51 234.673 1339.33 236.231 1337.12 237.733C1333.64 240.087 1333.44 240.535 1336.31 243.219C1340.09 246.754 1342.96 250.633 1345.01 254.78C1345.93 256.639 1346.52 258.88 1345.97 260.755C1344.13 267.009 1341.72 273.177 1340.03 277.925C1344.74 282.044 1348.63 285.445 1352.99 289.263ZM1440.01 169.492C1438.2 170.158 1436.09 170.723 1434.32 171.633C1430.9 173.392 1427.73 175.392 1424.36 177.207C1413.39 183.128 1400.96 185.83 1387.29 185.488C1384.51 185.418 1381.75 184.835 1378.98 184.488C1378.35 188.645 1379.63 197.177 1381.22 199.447C1384.18 198.525 1387.03 197.267 1390.13 196.73C1402.27 194.619 1414.55 193.37 1427.1 194.473C1432.68 194.961 1437.53 196.548 1441.19 199.509C1446.3 203.641 1452.04 201.908 1457.95 201.404C1453.64 196.198 1448.82 191.653 1445.93 186.544C1443.04 181.413 1442.08 175.724 1440.01 169.492ZM1337.72 281.722C1337.38 285.016 1336.79 287.982 1336.83 290.944C1336.88 295.297 1339.01 299.173 1344.77 301.102C1348.58 302.374 1352.93 302.821 1357.14 303.66C1357.16 297.821 1357.11 297.214 1353.5 294.214C1348.54 290.088 1343.32 286.129 1337.72 281.722Z" fill="#626262" fill-opacity="0.4"/>
<path d="M135.642 663.093C137.411 664.875 139.408 666.564 140.893 668.458C143.267 671.487 141.072 674.037 136.198 673.973C134.319 673.95 132.346 673.634 130.596 673.13C126.917 672.068 124.245 673.078 121.921 674.973C120.4 676.212 119.098 677.588 117.581 678.824C115.827 680.254 113.6 680.421 111.294 679.626C109.146 678.883 108.099 677.495 108.604 675.878C109.185 674.022 110.089 672.189 111.19 670.456C112.531 668.343 113.776 666.265 113.6 662.913C107.435 667.641 102.041 671.775 96.1594 676.284C97.1493 678.84 97.5187 682.066 93.9179 684.513C89.5389 687.488 85.7946 691.198 78.9123 691.586C73.4107 691.894 68.691 693.478 64.4769 696.18C54.4206 702.63 42.2841 705.242 28.9784 705.227C23.2473 705.219 17.5198 704.833 11.7887 704.779C9.51486 704.759 7.2303 705.186 4.94933 705.376C2.96962 705.543 0.95764 705.517 -0.0178693 704.003C-1.12608 702.278 0.369458 701.162 2.11246 700.16C5.25776 698.352 8.91592 697.468 12.8466 697.694C22.0602 698.226 30.6353 695.918 39.4867 694.864C43.5824 694.375 47.201 692.969 49.9734 690.812C55.5754 686.444 61.1487 682.104 69.1392 680.058C68.6658 677.59 66.7077 676.899 64.337 676.59C58.1146 675.78 51.8813 674.996 45.6517 674.215C44.1382 674.024 42.5925 673.96 41.1005 673.718C34.5661 672.664 31.948 669.345 34.1106 664.795C34.7275 663.497 35.6635 662.278 36.4274 661.013C37.3922 659.419 36.7502 658.381 34.3616 657.882C32.9163 657.579 31.3921 657.309 30.1117 656.769C20.4284 652.671 18.9687 650.689 20.8552 642.655C21.7123 639.012 24.5671 635.901 29.5989 634.533C32.7549 633.675 34.315 632.461 34.5194 630.104C34.6019 629.166 35.0718 628.217 35.5631 627.327C37.5607 623.7 41.4126 622.391 46.638 623.507C49.5753 624.134 52.4839 624.864 55.4642 625.353C58.5485 625.859 61.1881 625.096 63.0674 623.258C64.8606 621.502 63.6807 619.844 62.4577 618.25C61.5396 617.054 60.5175 615.9 59.6245 614.828C55.8802 614.828 52.4373 614.8 48.9979 614.833C41.7605 614.902 40.1753 613.553 41.5955 608.272C39.8883 606.755 37.8799 605.246 36.3485 603.521C35.1542 602.177 34.0676 600.609 33.7735 599.058C33.1315 595.696 34.5661 594.752 39.3253 594.31C43.3098 593.94 47.3051 593.495 51.2071 592.819C56.0273 591.983 59.3519 593.207 62.0453 596.012C63.5946 597.624 65.5349 599.043 67.9701 601.123C69.5374 596.773 67.8517 593.947 65.3914 591.078C62.8989 588.173 60.7901 585.088 58.753 582.001C56.5724 578.697 57.1498 575.383 58.8032 571.974C59.8181 569.879 61.4715 568.925 64.2832 569.254C68.985 569.805 72.6575 568.457 76.703 566.936C83.3056 564.455 90.2884 562.383 97.3788 560.729C100.66 559.966 104.613 560.367 108.188 560.668C111.115 560.912 113.851 561.159 116.602 560.192C119.575 559.148 122.599 559.459 125.557 560.272C135.772 563.071 146.097 565.681 156.135 568.774C162.838 570.841 169.67 571.648 176.836 571.823C180.071 571.902 183.317 572.301 186.494 572.784C188.962 573.16 189.962 574.368 190.411 576.314C192.71 586.243 190.834 596.094 189.88 605.969C189.202 612.974 188.793 619.995 187.958 626.991C186.731 637.271 185.225 647.537 183.851 657.81C183.467 660.669 183.13 663.53 182.747 666.6C184.547 667.06 185.895 667.556 187.323 667.744C192.885 668.476 197.272 670.335 200.507 673.78C203.713 677.194 208.009 678.701 213.913 677.032C221.921 674.765 228.621 677.492 233.72 681.241C241.453 686.92 250.788 690.475 260.35 694.049C266.45 696.326 272.325 698.995 277.92 701.872C282.672 704.314 286.039 707.695 287.549 711.89C288.363 714.153 288.076 716.248 286.294 718.222C283.819 720.96 280.685 721.737 276.424 720.482C274.129 719.806 271.963 718.899 269.807 718.122C269.355 718.228 268.832 718.23 268.688 718.4C265.181 722.495 263.707 723.004 258.302 720.397C252.908 717.796 248.012 714.654 242.995 711.662C238.419 708.934 233.885 706.163 229.499 703.281C221.437 697.979 213.583 692.514 205.47 687.254C201.206 684.488 196.748 681.832 192.035 679.482C189.801 678.369 186.814 677.937 184.077 677.459C178.895 676.549 173.644 675.829 168.426 675.027C168.239 674.999 168.064 674.929 167.877 674.901C159.184 673.646 151.785 670.968 145.853 665.978C143.708 664.173 139.731 663.489 136.589 662.296C136.274 662.553 135.958 662.823 135.642 663.093ZM195.539 676.423C194.686 673.603 191.731 672.317 187.843 671.944C185.759 671.744 183.625 671.775 181.516 671.767C178.931 671.757 177.586 670.808 177.417 669.024C177.327 668.068 177.435 667.098 177.539 666.139C178.5 657.211 179.533 648.288 180.43 639.359C181.021 633.454 181.326 627.533 181.929 621.628C183.084 610.362 184.457 599.11 185.533 587.842C185.885 584.176 185.587 580.476 185.587 576.391C180.591 576.057 176.015 575.849 171.482 575.412C167.705 575.047 163.742 574.828 160.274 573.815C150.684 571.015 141.388 567.696 131.816 564.863C127.494 563.583 122.903 561.691 118.044 563.344C114.644 564.501 111.287 564.573 107.948 563.958C102.145 562.894 97.1852 564.113 91.8665 565.699C82.8036 568.403 74.6767 573.064 64.1613 572.707C62.7769 575.07 62.4757 577.224 63.8887 579.332C65.8756 582.291 67.7585 585.317 70.2116 588.076C72.8476 591.042 75.0425 593.986 75.0676 597.611C75.0963 601.567 73.8088 603.565 70.3407 604.447C66.6718 605.38 63.8457 604.58 60.4673 601.575C59.1439 600.395 58.111 599.027 56.6405 597.961C55.6758 597.261 54.1551 596.523 52.9035 596.539C48.1622 596.593 43.5106 597.148 39.2607 598.945C41.409 603.501 48.7253 605.493 48.6392 610.684C52.2543 610.684 55.5395 610.473 58.7386 610.763C60.6502 610.936 63.0638 611.555 64.1147 612.576C66.1374 614.537 67.5038 616.879 68.8703 619.15C70.6061 622.026 69.3724 624.523 66.4172 626.682C63.193 629.034 59.23 629.883 54.8151 629.289C51.8168 628.885 48.901 628.137 45.9853 627.464C42.2052 626.589 41.1221 626.942 40.1932 629.615C39.8704 630.549 39.6516 631.51 39.5261 632.466C39.1854 635.048 37.3742 636.742 34.0424 637.801C26.6616 640.148 26.8804 644.184 27.3753 648.529C27.7841 652.115 32.4393 652.527 35.8931 653.769C36.223 653.887 36.6605 653.835 37.0192 653.928C41.1938 655.018 43.4712 657.586 42.6535 660.741C42.241 662.337 41.2153 663.862 40.3797 665.394C38.4789 668.872 39.1137 669.698 44.3642 670.335C51.1677 671.163 58.0105 671.865 64.7674 672.855C67.1273 673.199 69.5337 673.996 71.4919 675.012C75.602 677.14 77.076 681.799 71.2481 684.308C65.7214 686.686 61.328 689.925 57.1175 693.349C53.1761 696.553 48.3344 698.643 42.2984 699.185C39.0635 699.476 35.8464 699.869 32.6366 700.28C31.349 700.445 30.1046 700.782 28.8421 701.041C29.6096 701.666 30.1476 701.833 30.6963 701.841C42.7073 702.057 53.3805 699.414 62.6729 693.99C66.1553 691.956 69.7705 689.946 74.2643 689.652C80.9386 689.215 85.4862 686.439 89.9836 683.382C92.512 681.662 94.1976 679.904 92.7057 677.207C91.5508 675.114 92.6806 673.688 95.5963 672.533C98.0279 671.569 100.044 669.973 101.984 668.482C104.86 666.268 107.389 663.815 110.315 661.635C111.398 660.828 113.604 659.82 114.554 660.121C115.989 660.574 117.04 662.006 117.735 663.18C118.209 663.98 118.083 665.114 117.71 665.985C116.817 668.073 115.612 670.091 114.543 672.14C113.79 673.58 112.029 674.909 113.729 677.168C115.72 675.531 117.402 674.122 119.12 672.736C122.469 670.034 126.379 668.769 131.464 670.109C133.164 670.556 135.022 670.695 137.213 671.04C136.353 666.211 130.04 664.535 127.978 660.9C130.553 658.707 133.534 659.445 136.202 659.851C142.787 660.851 148.453 663.18 152.664 666.952C155.264 669.281 158.524 670.345 162.379 670.973C165.926 671.549 169.405 672.333 172.923 673.001C175.513 673.495 178.095 674.032 180.717 674.415C185.519 675.119 190.361 675.729 195.539 676.423ZM260.027 716.317C260.64 715.752 260.981 715.572 261.056 715.346C262.34 711.369 264.015 710.785 268.9 712.711C271.084 713.572 273.092 714.695 275.366 715.387C276.966 715.875 279.867 716.413 280.441 715.909C281.567 714.914 281.997 713.173 281.789 711.811C281.33 708.787 278.823 706.342 275.438 704.723C269.882 702.067 264.187 699.476 258.176 697.422C247.568 693.797 237.192 690.185 229.32 683.524C226.386 681.043 222.169 678.786 216.631 680.022C213.084 680.816 209.494 681.513 205.743 682.292C222.129 695.113 241.499 705.348 260.027 716.317Z" fill="#626262" fill-opacity="0.4"/>
<path d="M444.07 718.628C438.795 717.369 436.736 715.052 435.904 712.029C435.201 709.481 434.523 706.928 433.785 704.386C433.516 703.463 433.232 702.522 432.723 701.658C429.334 695.894 430.108 694.277 437.694 691.539C437.884 691.308 438.185 691.092 438.246 690.843C439.419 686.056 442.636 684.904 448.607 687.192C449.784 687.642 450.82 688.277 451.957 688.783C456.483 690.804 460.945 692.915 465.585 694.794C470.226 696.671 470.606 697.018 469.448 701.581C469.663 701.663 470.545 701.81 471.001 702.208C473.382 704.291 473.307 705.622 470.276 706.859C467.816 707.862 464.936 708.322 462.325 709.155C460.274 709.81 457.315 710.322 456.548 711.497C453.872 715.6 447.782 716.06 444.07 718.628ZM440.559 716.759C445.121 714.564 449.307 713.212 452.631 710.756C454.579 709.317 456.781 707.998 459.126 706.91C461.156 705.97 463.555 705.435 465.564 704.795C465.284 702.429 465.047 700.416 464.836 698.64C459.212 695.583 453.818 692.542 448.238 689.691C446.674 688.891 444.555 688.65 442.249 688.035C441.779 690.295 441.427 691.992 441.09 693.624C440.269 693.83 439.731 693.961 439.196 694.097C434.416 695.321 433.989 696.133 435.693 699.568C436.37 700.938 436.786 702.458 436.772 703.905C436.733 708.088 438.006 712.021 440.559 716.759Z" fill="#626262" fill-opacity="0.4"/>
<path d="M409.813 668.477C416.72 669.22 422.767 669.747 428.738 670.564C431.511 670.945 433.58 672.212 433.713 674.539C433.842 676.811 432.827 678.755 429.822 679.613C425.579 680.824 421.261 682.197 416.796 679.693C411.943 676.971 409.282 673.665 409.813 668.477ZM413.019 671.531C414.755 675.454 417.362 677.763 421.662 679.089C423.696 678.506 425.869 678.166 427.526 677.313C428.717 676.698 429.811 675.402 429.818 674.405C429.822 673.783 427.817 672.757 426.551 672.603C422.441 672.101 418.252 671.916 413.019 671.531Z" fill="#626262" fill-opacity="0.4"/>
<path d="M92.2011 698.684C87.9906 698.695 85.6774 696.054 87.8113 693.597C90.0995 690.961 92.3517 688.103 95.5795 686.164C97.6955 684.894 101.501 684.894 104.585 684.768C105.231 684.743 106.712 686.678 106.636 687.666C106.364 691.237 98.6531 697.396 93.6428 698.42C93.0941 698.533 92.5418 698.623 92.2011 698.684ZM103.323 686.92C101.39 686.059 99.7685 686.283 98.3769 687.581C96.0744 689.73 93.7074 691.846 91.4444 694.018C90.9566 694.486 90.806 695.137 90.415 695.862C95.87 695.299 101.124 691.55 103.323 686.92Z" fill="#626262" fill-opacity="0.4"/>
<path d="M324.664 638.978C329.362 638.944 333.128 641.559 333.181 644.893C333.239 648.451 329.796 651.174 325.252 651.161C321.138 651.151 317.225 647.896 317.085 644.377C316.964 641.23 320.08 639.011 324.664 638.978ZM325.661 649.143C327.052 647.459 328.311 646.582 328.39 645.652C328.469 644.767 327.619 643.528 326.607 643.006C325.84 642.608 323.796 642.783 323.039 643.271C322.322 643.737 322.121 645.032 322.447 645.798C322.852 646.744 324.036 647.518 325.661 649.143Z" fill="#626262" fill-opacity="0.4"/>
<path d="M372.277 663.643C364.233 663.648 358.86 657.823 362.325 652.856C364.035 650.406 365.459 650.09 369.203 651.01C373.966 652.182 376.799 654.663 378.212 657.931C379.945 661.944 378.04 663.641 372.277 663.643ZM365.531 652.787C363.203 655.447 363.82 657.838 366.015 659.892C368.181 661.923 371.359 662.188 374.64 661.612C375.684 656.303 373.536 654.213 365.531 652.787Z" fill="#626262" fill-opacity="0.4"/>
<path d="M398.927 662.902C401.104 663.532 403.866 664.098 406.24 665.126C407.244 665.561 408.198 667.203 407.796 667.872C407.251 668.779 405.211 669.965 404.113 669.823C400.254 669.327 396.363 668.568 392.798 667.412C390.201 666.568 390.621 664.468 393.289 663.771C394.878 663.36 396.618 663.244 398.927 662.902ZM395.775 665.635C398.461 667.345 401.366 668.216 405.29 667.34C402.74 664.316 399.221 664.977 395.775 665.635Z" fill="#626262" fill-opacity="0.4"/>
<path d="M310.059 649.045C310.073 651.627 307.767 653.748 304.948 653.742C301.993 653.74 299.831 652.012 299.813 649.642C299.791 646.865 302.226 644.606 305.21 644.642C307.868 644.675 310.048 646.652 310.059 649.045ZM304.805 646.811C302.578 647.958 301.344 649.159 302.337 650.968C302.517 651.295 304.324 651.601 304.644 651.377C306.448 650.105 306.734 648.647 304.805 646.811Z" fill="#626262" fill-opacity="0.4"/>
<path d="M76.9261 705.944C76.858 707.63 73.8525 709.44 71.2165 709.289C68.9929 709.16 67.7054 708.183 67.5547 706.62C67.4184 705.214 70.8363 703.337 73.4078 703.273C75.3194 703.226 76.9835 704.489 76.9261 705.944Z" fill="#626262" fill-opacity="0.4"/>
</svg>
