<svg width="181" height="32" viewBox="0 0 181 32" fill="none" xmlns="http://www.w3.org/2000/svg">
<path d="M16.5 0L20.0922 11.0557H31.7169L22.3123 17.8885L25.9046 28.9443L16.5 22.1115L7.09544 28.9443L10.6877 17.8885L1.2831 11.0557H12.9078L16.5 0Z" fill="#FFE815"/>
<path d="M53.5 0L57.0922 11.0557H68.7169L59.3123 17.8885L62.9046 28.9443L53.5 22.1115L44.0954 28.9443L47.6877 17.8885L38.2831 11.0557H49.9078L53.5 0Z" fill="#FFE815"/>
<path d="M90.5 0L94.0922 11.0557H105.717L96.3123 17.8885L99.9046 28.9443L90.5 22.1115L81.0954 28.9443L84.6877 17.8885L75.2831 11.0557H86.9078L90.5 0Z" fill="#FFE815"/>
<path d="M127.5 0L131.092 11.0557H142.717L133.312 17.8885L136.905 28.9443L127.5 22.1115L118.095 28.9443L121.688 17.8885L112.283 11.0557H123.908L127.5 0Z" fill="#FFE815"/>
<path d="M164.5 0L168.092 11.0557H179.717L170.312 17.8885L173.905 28.9443L164.5 22.1115L155.095 28.9443L158.688 17.8885L149.283 11.0557H160.908L164.5 0Z" fill="#FFE815"/>
</svg>
