<svg width="18" height="18" viewBox="0 0 18 18" fill="none" xmlns="http://www.w3.org/2000/svg">
<path fill-rule="evenodd" clip-rule="evenodd" d="M5.28943 0.0539998C4.33157 0.0977141 3.67714 0.249429 3.10371 0.473143C2.51228 0.702 2.01086 1.01057 1.50943 1.51071C1.01057 2.01086 0.702 2.51357 0.473143 3.105C0.249429 3.67714 0.0977141 4.33157 0.0539998 5.28943C0.0102855 6.24857 0 6.55586 0 9C0 11.4441 0.0102855 11.7514 0.0539998 12.7106C0.0977141 13.6684 0.249429 14.3229 0.473143 14.8963C0.702 15.4877 1.01057 15.9891 1.51071 16.4906C2.01086 16.9894 2.51357 17.298 3.105 17.5281C3.67714 17.7506 4.33157 17.901 5.28943 17.946C6.24986 17.9897 6.55586 18 9 18C11.4441 18 11.7514 17.9897 12.7106 17.946C13.6684 17.9023 14.3229 17.7506 14.8963 17.5281C15.4877 17.2967 15.9891 16.9894 16.4906 16.4893C16.9894 15.9891 17.298 15.4864 17.5281 14.895C17.7506 14.3229 17.901 13.6684 17.946 12.7106C17.9897 11.7501 18 11.4441 18 9C18 6.55586 17.9897 6.24857 17.946 5.28943C17.9023 4.33157 17.7506 3.67714 17.5281 3.10371C17.3019 2.50305 16.9474 1.95898 16.4893 1.50943C15.9891 1.01057 15.4864 0.702 14.895 0.473143C14.3229 0.249429 13.6684 0.0977141 12.7106 0.0539998C11.7514 0.0102855 11.4441 0 9 0C6.55586 0 6.24857 0.0102855 5.28943 0.0539998ZM4.37786 9C4.37786 10.2259 4.86483 11.4015 5.73165 12.2683C6.59847 13.1352 7.77413 13.6221 9 13.6221C10.2259 13.6221 11.4015 13.1352 12.2683 12.2683C13.1352 11.4015 13.6221 10.2259 13.6221 9C13.6221 7.77413 13.1352 6.59847 12.2683 5.73165C11.4015 4.86483 10.2259 4.37786 9 4.37786C7.77413 4.37786 6.59847 4.86483 5.73165 5.73165C4.86483 6.59847 4.37786 7.77413 4.37786 9ZM9 11.9996C8.20446 11.9996 7.44151 11.6835 6.87898 11.121C6.31645 10.5585 6.00043 9.79554 6.00043 9C6.00043 8.20446 6.31645 7.44151 6.87898 6.87898C7.44151 6.31645 8.20446 6.00043 9 6.00043C9.79554 6.00043 10.5585 6.31645 11.121 6.87898C11.6835 7.44151 11.9996 8.20446 11.9996 9C11.9996 9.79554 11.6835 10.5585 11.121 11.121C10.5585 11.6835 9.79554 11.9996 9 11.9996ZM15.3 3.87C15.3 4.01183 15.2721 4.15227 15.2178 4.2833C15.1635 4.41433 15.084 4.53339 14.9837 4.63368C14.8834 4.73396 14.7643 4.81351 14.6333 4.86779C14.5023 4.92206 14.3618 4.95 14.22 4.95C14.0782 4.95 13.9377 4.92206 13.8067 4.86779C13.6757 4.81351 13.5566 4.73396 13.4563 4.63368C13.356 4.53339 13.2765 4.41433 13.2222 4.2833C13.1679 4.15227 13.14 4.01183 13.14 3.87C13.14 3.58357 13.2538 3.30886 13.4563 3.10632C13.6589 2.90378 13.9336 2.79 14.22 2.79C14.5064 2.79 14.7811 2.90378 14.9837 3.10632C15.1862 3.30886 15.3 3.58357 15.3 3.87Z" fill="white"/>
</svg>
