<svg width="16" height="16" viewBox="0 0 16 16" fill="none" xmlns="http://www.w3.org/2000/svg">
<path d="M8.00002 1.09717C4.19542 1.09717 1.10002 4.19257 1.10002 7.99717C1.10002 9.18517 1.40692 10.3534 1.98892 11.3842L1.11112 14.5162C1.08232 14.6191 1.11022 14.7295 1.18462 14.806C1.24192 14.8651 1.31992 14.8972 1.40002 14.8972C1.42402 14.8972 1.44832 14.8942 1.47202 14.8885L4.74082 14.0788C5.73892 14.6146 6.86302 14.8972 8.00002 14.8972C11.8046 14.8972 14.9 11.8018 14.9 7.99717C14.9 4.19257 11.8046 1.09717 8.00002 1.09717ZM11.471 10.432C11.3234 10.8406 10.6154 11.2135 10.2752 11.2636C9.96982 11.3083 9.58342 11.3275 9.15922 11.1943C8.90212 11.1133 8.57212 11.0059 8.14942 10.8256C6.37252 10.0678 5.21212 8.30107 5.12332 8.18437C5.03482 8.06767 4.40002 7.23607 4.40002 6.37537C4.40002 5.51467 4.85752 5.09137 5.02012 4.91617C5.18272 4.74097 5.37442 4.69717 5.49262 4.69717C5.61082 4.69717 5.72872 4.69867 5.83222 4.70347C5.94112 4.70887 6.08722 4.66237 6.23092 5.00377C6.37852 5.35417 6.73282 6.21487 6.77662 6.30277C6.82102 6.39037 6.85042 6.49267 6.79162 6.60937C6.73282 6.72607 6.70342 6.79897 6.61462 6.90127C6.52582 7.00357 6.42862 7.12927 6.34882 7.20787C6.26002 7.29517 6.16792 7.38967 6.27112 7.56487C6.37432 7.74007 6.72982 8.31277 7.25662 8.77657C7.93312 9.37237 8.50402 9.55717 8.68102 9.64477C8.85802 9.73237 8.96152 9.71767 9.06472 9.60097C9.16792 9.48397 9.50752 9.09007 9.62542 8.91517C9.74332 8.74027 9.86152 8.76907 10.0241 8.82757C10.1867 8.88577 11.0576 9.30877 11.2346 9.39637C11.4116 9.48397 11.5298 9.52777 11.5742 9.60067C11.6186 9.67327 11.6186 10.0237 11.471 10.432Z" fill="white"/>
</svg>
